<svg id="visual" viewBox="0 0 900 600" width="900" height="600" xmlns="http://www.w3.org/2000/svg" xmlns:xlink="http://www.w3.org/1999/xlink" version="1.1"><g stroke-width="1" stroke-linejoin="bevel"><path d="M488 316.7L447 350.6L489 342Z" fill="#0c2435" stroke="#0c2435"></path><path d="M488 316.7L450 303.7L447 350.6Z" fill="#1d4e6b" stroke="#1d4e6b"></path><path d="M450 303.7L424 343.9L447 350.6Z" fill="#15384f" stroke="#15384f"></path><path d="M424 343.9L436 367.9L447 350.6Z" fill="#205a7a" stroke="#205a7a"></path><path d="M447 350.6L479 376.6L489 342Z" fill="#00101c" stroke="#00101c"></path><path d="M436 367.9L479 376.6L447 350.6Z" fill="#205a7a" stroke="#205a7a"></path><path d="M436 367.9L477 388L479 376.6Z" fill="#246688" stroke="#246688"></path><path d="M479 376.6L542 332.6L489 342Z" fill="#297ea6" stroke="#297ea6"></path><path d="M450 303.7L404 308L424 343.9Z" fill="#205a7a" stroke="#205a7a"></path><path d="M424 343.9L401 343.9L436 367.9Z" fill="#0c2435" stroke="#0c2435"></path><path d="M404 308L401 343.9L424 343.9Z" fill="#00101c" stroke="#00101c"></path><path d="M488 316.7L444 268.3L450 303.7Z" fill="#00101c" stroke="#00101c"></path><path d="M450 303.7L444 268.3L404 308Z" fill="#112e42" stroke="#112e42"></path><path d="M561 437.7L542 332.6L479 376.6Z" fill="#19435d" stroke="#19435d"></path><path d="M489 342L542 332.6L488 316.7Z" fill="#0c2435" stroke="#0c2435"></path><path d="M530 250.4L449 236.3L444 268.3Z" fill="#277297" stroke="#277297"></path><path d="M382 406.4L434 402.4L436 367.9Z" fill="#00101c" stroke="#00101c"></path><path d="M436 367.9L434 402.4L477 388Z" fill="#112e42" stroke="#112e42"></path><path d="M449 236.3L420 246.3L444 268.3Z" fill="#00101c" stroke="#00101c"></path><path d="M444 268.3L420 246.3L404 308Z" fill="#112e42" stroke="#112e42"></path><path d="M530 250.4L444 268.3L488 316.7Z" fill="#15384f" stroke="#15384f"></path><path d="M584 423.6L561 323.1L542 332.6Z" fill="#205a7a" stroke="#205a7a"></path><path d="M542 332.6L533 253L488 316.7Z" fill="#246688" stroke="#246688"></path><path d="M561 323.1L533 253L542 332.6Z" fill="#297ea6" stroke="#297ea6"></path><path d="M533 253L530 250.4L488 316.7Z" fill="#081a28" stroke="#081a28"></path><path d="M434 402.4L467 434.4L477 388Z" fill="#205a7a" stroke="#205a7a"></path><path d="M477 388L561 437.7L479 376.6Z" fill="#297ea6" stroke="#297ea6"></path><path d="M420 246.3L386 259.3L404 308Z" fill="#081a28" stroke="#081a28"></path><path d="M404 308L321 314.9L401 343.9Z" fill="#205a7a" stroke="#205a7a"></path><path d="M501 212.6L447 221.3L449 236.3Z" fill="#19435d" stroke="#19435d"></path><path d="M449 236.3L447 221.3L420 246.3Z" fill="#00101c" stroke="#00101c"></path><path d="M389 245.1L386 251L386 259.3Z" fill="#00101c" stroke="#00101c"></path><path d="M389 245.1L386 259.3L420 246.3Z" fill="#205a7a" stroke="#205a7a"></path><path d="M326 402.7L382 406.4L401 343.9Z" fill="#277297" stroke="#277297"></path><path d="M401 343.9L382 406.4L436 367.9Z" fill="#205a7a" stroke="#205a7a"></path><path d="M434 402.4L389 413.7L467 434.4Z" fill="#205a7a" stroke="#205a7a"></path><path d="M321 314.9L404 308L323 283.9Z" fill="#246688" stroke="#246688"></path><path d="M382 406.4L389 413.7L434 402.4Z" fill="#277297" stroke="#277297"></path><path d="M439 209L389 245.1L420 246.3Z" fill="#15384f" stroke="#15384f"></path><path d="M514 516.6L495 444.7L457 526.3Z" fill="#00101c" stroke="#00101c"></path><path d="M467 434.4L495 444.7L477 388Z" fill="#00101c" stroke="#00101c"></path><path d="M617 337L581 296.1L561 323.1Z" fill="#00101c" stroke="#00101c"></path><path d="M561 323.1L581 296.1L533 253Z" fill="#15384f" stroke="#15384f"></path><path d="M495 444.7L507 445.3L477 388Z" fill="#0c2435" stroke="#0c2435"></path><path d="M559 202.6L501 212.6L530 250.4Z" fill="#19435d" stroke="#19435d"></path><path d="M530 250.4L501 212.6L449 236.3Z" fill="#00101c" stroke="#00101c"></path><path d="M559 202.6L530 250.4L533 253Z" fill="#112e42" stroke="#112e42"></path><path d="M488 180.4L439 209L447 221.3Z" fill="#0c2435" stroke="#0c2435"></path><path d="M447 221.3L439 209L420 246.3Z" fill="#205a7a" stroke="#205a7a"></path><path d="M581 296.1L573 258.9L533 253Z" fill="#19435d" stroke="#19435d"></path><path d="M507 445.3L561 437.7L477 388Z" fill="#112e42" stroke="#112e42"></path><path d="M323 283.9L386 259.3L335 250.1Z" fill="#277297" stroke="#277297"></path><path d="M323 283.9L404 308L386 259.3Z" fill="#1d4e6b" stroke="#1d4e6b"></path><path d="M365 218.1L386 251L389 245.1Z" fill="#297ea6" stroke="#297ea6"></path><path d="M335 250.1L386 259.3L386 251Z" fill="#1d4e6b" stroke="#1d4e6b"></path><path d="M396 180.1L365 218.1L389 245.1Z" fill="#081a28" stroke="#081a28"></path><path d="M561 437.7L584 423.6L542 332.6Z" fill="#1d4e6b" stroke="#1d4e6b"></path><path d="M561 437.7L575 434.3L584 423.6Z" fill="#297ea6" stroke="#297ea6"></path><path d="M559 176.6L488 180.4L501 212.6Z" fill="#205a7a" stroke="#205a7a"></path><path d="M501 212.6L488 180.4L447 221.3Z" fill="#112e42" stroke="#112e42"></path><path d="M439 209L396 180.1L389 245.1Z" fill="#15384f" stroke="#15384f"></path><path d="M584 423.6L617 337L561 323.1Z" fill="#19435d" stroke="#19435d"></path><path d="M639 243.9L583 220.6L573 258.9Z" fill="#19435d" stroke="#19435d"></path><path d="M365 218.1L335 250.1L386 251Z" fill="#15384f" stroke="#15384f"></path><path d="M323 283.9L314 295.3L321 314.9Z" fill="#112e42" stroke="#112e42"></path><path d="M316 255L314 295.3L323 283.9Z" fill="#00101c" stroke="#00101c"></path><path d="M289 354.7L326 402.7L321 314.9Z" fill="#19435d" stroke="#19435d"></path><path d="M321 314.9L326 402.7L401 343.9Z" fill="#277297" stroke="#277297"></path><path d="M382 406.4L315 422.3L389 413.7Z" fill="#112e42" stroke="#112e42"></path><path d="M389 413.7L364 482.3L467 434.4Z" fill="#277297" stroke="#277297"></path><path d="M583 220.6L533 253L573 258.9Z" fill="#081a28" stroke="#081a28"></path><path d="M583 220.6L559 202.6L533 253Z" fill="#297ea6" stroke="#297ea6"></path><path d="M488 180.4L453 171.4L439 209Z" fill="#0c2435" stroke="#0c2435"></path><path d="M639 257.9L573 258.9L581 296.1Z" fill="#1d4e6b" stroke="#1d4e6b"></path><path d="M345 181.3L348 216.6L365 218.1Z" fill="#081a28" stroke="#081a28"></path><path d="M365 218.1L348 216.6L335 250.1Z" fill="#297ea6" stroke="#297ea6"></path><path d="M335 250.1L316 255L323 283.9Z" fill="#205a7a" stroke="#205a7a"></path><path d="M453 171.4L396 180.1L439 209Z" fill="#081a28" stroke="#081a28"></path><path d="M314 243.1L316 255L335 250.1Z" fill="#00101c" stroke="#00101c"></path><path d="M345 181.3L335 223.4L348 216.6Z" fill="#1d4e6b" stroke="#1d4e6b"></path><path d="M348 216.6L335 223.4L335 250.1Z" fill="#0c2435" stroke="#0c2435"></path><path d="M282 331.6L295 328.9L314 295.3Z" fill="#081a28" stroke="#081a28"></path><path d="M314 295.3L295 328.9L321 314.9Z" fill="#1d4e6b" stroke="#1d4e6b"></path><path d="M584 423.6L633 373.6L617 337Z" fill="#205a7a" stroke="#205a7a"></path><path d="M659 293.1L639 257.9L581 296.1Z" fill="#1d4e6b" stroke="#1d4e6b"></path><path d="M648 393.9L633 373.6L584 423.6Z" fill="#1d4e6b" stroke="#1d4e6b"></path><path d="M335 223.4L314 243.1L335 250.1Z" fill="#19435d" stroke="#19435d"></path><path d="M235 290L282 331.6L314 295.3Z" fill="#112e42" stroke="#112e42"></path><path d="M269 374.7L315 422.3L326 402.7Z" fill="#1d4e6b" stroke="#1d4e6b"></path><path d="M326 402.7L315 422.3L382 406.4Z" fill="#297ea6" stroke="#297ea6"></path><path d="M282 331.6L289 354.7L295 328.9Z" fill="#277297" stroke="#277297"></path><path d="M295 328.9L289 354.7L321 314.9Z" fill="#205a7a" stroke="#205a7a"></path><path d="M602 503.4L604 443.3L575 434.3Z" fill="#15384f" stroke="#15384f"></path><path d="M575 434.3L604 443.3L584 423.6Z" fill="#246688" stroke="#246688"></path><path d="M622 475.7L604 443.3L602 503.4Z" fill="#205a7a" stroke="#205a7a"></path><path d="M605 183.7L559 176.6L559 202.6Z" fill="#277297" stroke="#277297"></path><path d="M559 202.6L559 176.6L501 212.6Z" fill="#15384f" stroke="#15384f"></path><path d="M488 180.4L457 147.4L453 171.4Z" fill="#15384f" stroke="#15384f"></path><path d="M315 422.3L364 482.3L389 413.7Z" fill="#1d4e6b" stroke="#1d4e6b"></path><path d="M495 444.7L514 516.6L507 445.3Z" fill="#081a28" stroke="#081a28"></path><path d="M507 445.3L514 516.6L561 437.7Z" fill="#277297" stroke="#277297"></path><path d="M254 250.4L314 295.3L316 255Z" fill="#081a28" stroke="#081a28"></path><path d="M500 124.4L457 147.4L488 180.4Z" fill="#297ea6" stroke="#297ea6"></path><path d="M453 171.4L425 144.7L396 180.1Z" fill="#112e42" stroke="#112e42"></path><path d="M648 393.9L649 354.9L633 373.6Z" fill="#205a7a" stroke="#205a7a"></path><path d="M633 373.6L649 354.9L617 337Z" fill="#19435d" stroke="#19435d"></path><path d="M659 293.1L581 296.1L617 337Z" fill="#297ea6" stroke="#297ea6"></path><path d="M583 220.6L605 183.7L559 202.6Z" fill="#00101c" stroke="#00101c"></path><path d="M457 147.4L425 144.7L453 171.4Z" fill="#297ea6" stroke="#297ea6"></path><path d="M396 180.1L345 181.3L365 218.1Z" fill="#205a7a" stroke="#205a7a"></path><path d="M649 354.9L655 323.9L617 337Z" fill="#081a28" stroke="#081a28"></path><path d="M339 82.7L345 181.3L396 180.1Z" fill="#19435d" stroke="#19435d"></path><path d="M335 223.4L302 200.4L314 243.1Z" fill="#112e42" stroke="#112e42"></path><path d="M457 526.3L495 444.7L467 434.4Z" fill="#112e42" stroke="#112e42"></path><path d="M604 443.3L648 393.9L584 423.6Z" fill="#19435d" stroke="#19435d"></path><path d="M705 296L669 300.1L714 307Z" fill="#00101c" stroke="#00101c"></path><path d="M664 226.1L639 243.9L639 257.9Z" fill="#19435d" stroke="#19435d"></path><path d="M639 257.9L639 243.9L573 258.9Z" fill="#00101c" stroke="#00101c"></path><path d="M364 482.3L457 526.3L467 434.4Z" fill="#112e42" stroke="#112e42"></path><path d="M669 300.1L659 293.1L655 323.9Z" fill="#19435d" stroke="#19435d"></path><path d="M655 323.9L659 293.1L617 337Z" fill="#00101c" stroke="#00101c"></path><path d="M282 331.6L269 374.7L289 354.7Z" fill="#277297" stroke="#277297"></path><path d="M289 354.7L269 374.7L326 402.7Z" fill="#205a7a" stroke="#205a7a"></path><path d="M314 500.6L369 519.4L364 482.3Z" fill="#19435d" stroke="#19435d"></path><path d="M639 243.9L605 183.7L583 220.6Z" fill="#00101c" stroke="#00101c"></path><path d="M529 124.7L500 124.4L488 180.4Z" fill="#19435d" stroke="#19435d"></path><path d="M604 443.3L626 456.7L648 393.9Z" fill="#277297" stroke="#277297"></path><path d="M622 475.7L626 456.7L604 443.3Z" fill="#112e42" stroke="#112e42"></path><path d="M669 300.1L655 323.9L714 307Z" fill="#19435d" stroke="#19435d"></path><path d="M692 244.3L664 226.1L639 257.9Z" fill="#246688" stroke="#246688"></path><path d="M345 181.3L302 200.4L335 223.4Z" fill="#246688" stroke="#246688"></path><path d="M314 243.1L254 250.4L316 255Z" fill="#00101c" stroke="#00101c"></path><path d="M282 331.6L220 358L269 374.7Z" fill="#205a7a" stroke="#205a7a"></path><path d="M276 180.7L302 200.4L306 126.6Z" fill="#246688" stroke="#246688"></path><path d="M529 124.7L488 180.4L559 176.6Z" fill="#15384f" stroke="#15384f"></path><path d="M457 147.4L414 70.7L425 144.7Z" fill="#1d4e6b" stroke="#1d4e6b"></path><path d="M314 500.6L364 482.3L315 422.3Z" fill="#00101c" stroke="#00101c"></path><path d="M364 482.3L369 519.4L457 526.3Z" fill="#00101c" stroke="#00101c"></path><path d="M602 503.4L575 434.3L561 437.7Z" fill="#0c2435" stroke="#0c2435"></path><path d="M626 456.7L665 419.6L648 393.9Z" fill="#00101c" stroke="#00101c"></path><path d="M619 143.6L529 124.7L559 176.6Z" fill="#205a7a" stroke="#205a7a"></path><path d="M669 421.7L665 419.6L626 456.7Z" fill="#0c2435" stroke="#0c2435"></path><path d="M648 393.9L721 361.9L649 354.9Z" fill="#00101c" stroke="#00101c"></path><path d="M514 516.6L569 523.4L561 437.7Z" fill="#277297" stroke="#277297"></path><path d="M572 553.4L569 523.4L514 516.6Z" fill="#00101c" stroke="#00101c"></path><path d="M569 523.4L602 503.4L561 437.7Z" fill="#00101c" stroke="#00101c"></path><path d="M711 464.7L669 421.7L626 456.7Z" fill="#277297" stroke="#277297"></path><path d="M678 507.6L626 456.7L622 475.7Z" fill="#1d4e6b" stroke="#1d4e6b"></path><path d="M665 419.6L669 421.7L648 393.9Z" fill="#277297" stroke="#277297"></path><path d="M692 244.3L639 257.9L659 293.1Z" fill="#246688" stroke="#246688"></path><path d="M639 243.9L665 213.4L605 183.7Z" fill="#112e42" stroke="#112e42"></path><path d="M605 183.7L619 143.6L559 176.6Z" fill="#205a7a" stroke="#205a7a"></path><path d="M302 200.4L254 250.4L314 243.1Z" fill="#19435d" stroke="#19435d"></path><path d="M298 494.4L314 500.6L315 422.3Z" fill="#1d4e6b" stroke="#1d4e6b"></path><path d="M679 217.1L665 213.4L664 226.1Z" fill="#277297" stroke="#277297"></path><path d="M664 226.1L665 213.4L639 243.9Z" fill="#297ea6" stroke="#297ea6"></path><path d="M254 250.4L235 290L314 295.3Z" fill="#00101c" stroke="#00101c"></path><path d="M266 479.6L298 494.4L315 422.3Z" fill="#246688" stroke="#246688"></path><path d="M251 445.7L315 422.3L269 374.7Z" fill="#15384f" stroke="#15384f"></path><path d="M314 516.6L369 519.4L314 500.6Z" fill="#277297" stroke="#277297"></path><path d="M314 516.6L366 545.3L369 519.4Z" fill="#081a28" stroke="#081a28"></path><path d="M369 519.4L366 545.3L457 526.3Z" fill="#00101c" stroke="#00101c"></path><path d="M502 587.1L572 553.4L514 516.6Z" fill="#0c2435" stroke="#0c2435"></path><path d="M298 494.4L308 510.3L314 500.6Z" fill="#277297" stroke="#277297"></path><path d="M308 510.3L314 516.6L314 500.6Z" fill="#19435d" stroke="#19435d"></path><path d="M665 213.4L635 160.1L605 183.7Z" fill="#297ea6" stroke="#297ea6"></path><path d="M302 200.4L260 199.1L254 250.4Z" fill="#00101c" stroke="#00101c"></path><path d="M254 250.4L210 280.9L235 290Z" fill="#00101c" stroke="#00101c"></path><path d="M306 126.6L302 200.4L345 181.3Z" fill="#297ea6" stroke="#297ea6"></path><path d="M306 126.6L345 181.3L339 82.7Z" fill="#081a28" stroke="#081a28"></path><path d="M635 160.1L619 143.6L605 183.7Z" fill="#277297" stroke="#277297"></path><path d="M692 244.3L679 217.1L664 226.1Z" fill="#15384f" stroke="#15384f"></path><path d="M684 204.4L638 156.3L635 160.1Z" fill="#1d4e6b" stroke="#1d4e6b"></path><path d="M692 244.3L659 293.1L669 300.1Z" fill="#081a28" stroke="#081a28"></path><path d="M714 307L655 323.9L721 361.9Z" fill="#00101c" stroke="#00101c"></path><path d="M217 419.4L251 445.7L269 374.7Z" fill="#1d4e6b" stroke="#1d4e6b"></path><path d="M298 494.4L236 548.3L308 510.3Z" fill="#112e42" stroke="#112e42"></path><path d="M705 296L692 244.3L669 300.1Z" fill="#081a28" stroke="#081a28"></path><path d="M276 180.7L260 199.1L302 200.4Z" fill="#205a7a" stroke="#205a7a"></path><path d="M684 204.4L635 160.1L665 213.4Z" fill="#00101c" stroke="#00101c"></path><path d="M635 160.1L638 156.3L619 143.6Z" fill="#246688" stroke="#246688"></path><path d="M235 290L220 358L282 331.6Z" fill="#1d4e6b" stroke="#1d4e6b"></path><path d="M502 587.1L514 516.6L457 526.3Z" fill="#246688" stroke="#246688"></path><path d="M569 523.4L572 553.4L602 503.4Z" fill="#297ea6" stroke="#297ea6"></path><path d="M602 503.4L634 513.3L622 475.7Z" fill="#277297" stroke="#277297"></path><path d="M251 445.7L266 479.6L315 422.3Z" fill="#112e42" stroke="#112e42"></path><path d="M236 548.3L341 600L314 516.6Z" fill="#297ea6" stroke="#297ea6"></path><path d="M572 553.4L634 513.3L602 503.4Z" fill="#00101c" stroke="#00101c"></path><path d="M721 361.9L655 323.9L649 354.9Z" fill="#00101c" stroke="#00101c"></path><path d="M705 296L725 301.7L692 244.3Z" fill="#00101c" stroke="#00101c"></path><path d="M721 361.9L648 393.9L669 421.7Z" fill="#081a28" stroke="#081a28"></path><path d="M711 223.6L684 204.4L679 217.1Z" fill="#0c2435" stroke="#0c2435"></path><path d="M679 217.1L684 204.4L665 213.4Z" fill="#0c2435" stroke="#0c2435"></path><path d="M711 223.6L679 217.1L692 244.3Z" fill="#15384f" stroke="#15384f"></path><path d="M631 133.4L619 143.6L638 156.3Z" fill="#19435d" stroke="#19435d"></path><path d="M631 133.4L625 133.3L619 143.6Z" fill="#246688" stroke="#246688"></path><path d="M619 143.6L580 78.4L529 124.7Z" fill="#1d4e6b" stroke="#1d4e6b"></path><path d="M397 600L434 583.1L366 545.3Z" fill="#112e42" stroke="#112e42"></path><path d="M366 545.3L434 583.1L457 526.3Z" fill="#1d4e6b" stroke="#1d4e6b"></path><path d="M667 67.7L631 133.4L695 79.7Z" fill="#15384f" stroke="#15384f"></path><path d="M540 73.9L500 124.4L529 124.7Z" fill="#0c2435" stroke="#0c2435"></path><path d="M738 360.7L721 361.9L754 455.6Z" fill="#081a28" stroke="#081a28"></path><path d="M339 82.7L396 180.1L425 144.7Z" fill="#246688" stroke="#246688"></path><path d="M276 180.7L265 148.6L260 199.1Z" fill="#246688" stroke="#246688"></path><path d="M189 250.3L210 280.9L254 250.4Z" fill="#246688" stroke="#246688"></path><path d="M235 290L186 303.3L220 358Z" fill="#00101c" stroke="#00101c"></path><path d="M461 600L502 587.1L457 526.3Z" fill="#297ea6" stroke="#297ea6"></path><path d="M738 360.7L725 301.7L714 307Z" fill="#081a28" stroke="#081a28"></path><path d="M714 307L725 301.7L705 296Z" fill="#246688" stroke="#246688"></path><path d="M220 358L217 419.4L269 374.7Z" fill="#15384f" stroke="#15384f"></path><path d="M251 445.7L222 472.4L266 479.6Z" fill="#205a7a" stroke="#205a7a"></path><path d="M191 374.6L217 419.4L220 358Z" fill="#081a28" stroke="#081a28"></path><path d="M456 56.6L457 147.4L500 124.4Z" fill="#15384f" stroke="#15384f"></path><path d="M456 56.6L414 70.7L457 147.4Z" fill="#19435d" stroke="#19435d"></path><path d="M540 73.9L529 124.7L580 78.4Z" fill="#277297" stroke="#277297"></path><path d="M580 78.4L619 143.6L625 133.3Z" fill="#19435d" stroke="#19435d"></path><path d="M713 226.6L711 223.6L692 244.3Z" fill="#1d4e6b" stroke="#1d4e6b"></path><path d="M639 51.6L621 87.9L667 67.7Z" fill="#205a7a" stroke="#205a7a"></path><path d="M725 301.7L713 226.6L692 244.3Z" fill="#15384f" stroke="#15384f"></path><path d="M341 600L355 576.1L314 516.6Z" fill="#15384f" stroke="#15384f"></path><path d="M314 516.6L355 576.1L366 545.3Z" fill="#205a7a" stroke="#205a7a"></path><path d="M459 600L461 600L434 583.1Z" fill="#0c2435" stroke="#0c2435"></path><path d="M434 583.1L461 600L457 526.3Z" fill="#205a7a" stroke="#205a7a"></path><path d="M442 634.1L459 600L434 583.1Z" fill="#0c2435" stroke="#0c2435"></path><path d="M306 126.6L265 148.6L276 180.7Z" fill="#205a7a" stroke="#205a7a"></path><path d="M260 199.1L189 250.3L254 250.4Z" fill="#277297" stroke="#277297"></path><path d="M540 73.9L456 56.6L500 124.4Z" fill="#00101c" stroke="#00101c"></path><path d="M711 464.7L721 361.9L669 421.7Z" fill="#246688" stroke="#246688"></path><path d="M721 361.9L738 360.7L714 307Z" fill="#00101c" stroke="#00101c"></path><path d="M725 301.7L764 221.3L713 226.6Z" fill="#1d4e6b" stroke="#1d4e6b"></path><path d="M621 87.9L580 78.4L625 133.3Z" fill="#205a7a" stroke="#205a7a"></path><path d="M416 0L426 26.7L439 -36.1Z" fill="#19435d" stroke="#19435d"></path><path d="M186 303.3L191 374.6L220 358Z" fill="#277297" stroke="#277297"></path><path d="M688 570.4L678 507.6L634 513.3Z" fill="#246688" stroke="#246688"></path><path d="M634 513.3L678 507.6L622 475.7Z" fill="#00101c" stroke="#00101c"></path><path d="M603 585.3L634 513.3L572 553.4Z" fill="#00101c" stroke="#00101c"></path><path d="M414 70.7L339 82.7L425 144.7Z" fill="#297ea6" stroke="#297ea6"></path><path d="M306 126.6L241 83.4L265 148.6Z" fill="#19435d" stroke="#19435d"></path><path d="M383 46.9L339 82.7L414 70.7Z" fill="#277297" stroke="#277297"></path><path d="M355 576.1L397 600L366 545.3Z" fill="#0c2435" stroke="#0c2435"></path><path d="M180 272.1L186 303.3L210 280.9Z" fill="#205a7a" stroke="#205a7a"></path><path d="M210 280.9L186 303.3L235 290Z" fill="#1d4e6b" stroke="#1d4e6b"></path><path d="M678 507.6L711 464.7L626 456.7Z" fill="#1d4e6b" stroke="#1d4e6b"></path><path d="M217 419.4L222 472.4L251 445.7Z" fill="#00101c" stroke="#00101c"></path><path d="M266 479.6L236 548.3L298 494.4Z" fill="#205a7a" stroke="#205a7a"></path><path d="M194 444.3L222 472.4L217 419.4Z" fill="#1d4e6b" stroke="#1d4e6b"></path><path d="M173 177.4L189 250.3L260 199.1Z" fill="#19435d" stroke="#19435d"></path><path d="M621 87.9L631 133.4L667 67.7Z" fill="#297ea6" stroke="#297ea6"></path><path d="M631 133.4L621 87.9L625 133.3Z" fill="#112e42" stroke="#112e42"></path><path d="M795 180.3L684 204.4L711 223.6Z" fill="#081a28" stroke="#081a28"></path><path d="M581 600L603 585.3L572 553.4Z" fill="#112e42" stroke="#112e42"></path><path d="M581 600L572 553.4L502 587.1Z" fill="#19435d" stroke="#19435d"></path><path d="M189 250.3L180 272.1L210 280.9Z" fill="#00101c" stroke="#00101c"></path><path d="M186 303.3L144 287L191 374.6Z" fill="#112e42" stroke="#112e42"></path><path d="M452 656.1L581 600L502 587.1Z" fill="#19435d" stroke="#19435d"></path><path d="M183 428.3L194 444.3L217 419.4Z" fill="#205a7a" stroke="#205a7a"></path><path d="M183 428.3L217 419.4L191 374.6Z" fill="#0c2435" stroke="#0c2435"></path><path d="M678 507.6L715 484.4L711 464.7Z" fill="#277297" stroke="#277297"></path><path d="M711 464.7L754 455.6L721 361.9Z" fill="#246688" stroke="#246688"></path><path d="M714 521.1L715 484.4L678 507.6Z" fill="#277297" stroke="#277297"></path><path d="M426 26.7L383 46.9L414 70.7Z" fill="#081a28" stroke="#081a28"></path><path d="M144 287L171 290.1L180 272.1Z" fill="#081a28" stroke="#081a28"></path><path d="M180 272.1L171 290.1L186 303.3Z" fill="#1d4e6b" stroke="#1d4e6b"></path><path d="M796 302.1L761 317.9L803 331.7Z" fill="#246688" stroke="#246688"></path><path d="M738 360.7L761 317.9L725 301.7Z" fill="#246688" stroke="#246688"></path><path d="M236 548.3L314 516.6L308 510.3Z" fill="#19435d" stroke="#19435d"></path><path d="M355 576.1L369 617.1L397 600Z" fill="#1d4e6b" stroke="#1d4e6b"></path><path d="M236 548.3L266 479.6L222 472.4Z" fill="#112e42" stroke="#112e42"></path><path d="M166 399.9L183 428.3L191 374.6Z" fill="#081a28" stroke="#081a28"></path><path d="M383 46.9L337 60.7L339 82.7Z" fill="#246688" stroke="#246688"></path><path d="M339 82.7L241 83.4L306 126.6Z" fill="#0c2435" stroke="#0c2435"></path><path d="M341 600L369 617.1L355 576.1Z" fill="#246688" stroke="#246688"></path><path d="M397 600L442 634.1L434 583.1Z" fill="#0c2435" stroke="#0c2435"></path><path d="M459 600L442 634.1L461 600Z" fill="#15384f" stroke="#15384f"></path><path d="M461 600L452 656.1L502 587.1Z" fill="#297ea6" stroke="#297ea6"></path><path d="M369 617.1L442 634.1L397 600Z" fill="#19435d" stroke="#19435d"></path><path d="M456 56.6L426 26.7L414 70.7Z" fill="#112e42" stroke="#112e42"></path><path d="M383 46.9L336 0L337 60.7Z" fill="#112e42" stroke="#112e42"></path><path d="M426 26.7L484 -38.1L439 -36.1Z" fill="#205a7a" stroke="#205a7a"></path><path d="M603 34.9L540 73.9L580 78.4Z" fill="#112e42" stroke="#112e42"></path><path d="M94 316.7L166 399.9L191 374.6Z" fill="#19435d" stroke="#19435d"></path><path d="M581 600L621 600L603 585.3Z" fill="#1d4e6b" stroke="#1d4e6b"></path><path d="M603 585.3L639 600L634 513.3Z" fill="#277297" stroke="#277297"></path><path d="M626 622.1L621 600L581 600Z" fill="#0c2435" stroke="#0c2435"></path><path d="M688 570.4L714 521.1L678 507.6Z" fill="#297ea6" stroke="#297ea6"></path><path d="M715 484.4L754 455.6L711 464.7Z" fill="#0c2435" stroke="#0c2435"></path><path d="M765 511.6L754 455.6L715 484.4Z" fill="#246688" stroke="#246688"></path><path d="M197 507.4L194 444.3L136 493.6Z" fill="#297ea6" stroke="#297ea6"></path><path d="M197 507.4L222 472.4L194 444.3Z" fill="#246688" stroke="#246688"></path><path d="M197 507.4L236 548.3L222 472.4Z" fill="#297ea6" stroke="#297ea6"></path><path d="M341 600L324 621.1L369 617.1Z" fill="#0c2435" stroke="#0c2435"></path><path d="M796 302.1L764 221.3L725 301.7Z" fill="#297ea6" stroke="#297ea6"></path><path d="M713 226.6L764 221.3L711 223.6Z" fill="#15384f" stroke="#15384f"></path><path d="M132 433.4L194 444.3L183 428.3Z" fill="#297ea6" stroke="#297ea6"></path><path d="M626 622.1L639 600L621 600Z" fill="#0c2435" stroke="#0c2435"></path><path d="M621 600L639 600L603 585.3Z" fill="#15384f" stroke="#15384f"></path><path d="M236 548.3L324 621.1L341 600Z" fill="#246688" stroke="#246688"></path><path d="M369 617.1L452 656.1L442 634.1Z" fill="#205a7a" stroke="#205a7a"></path><path d="M189 250.3L144 287L180 272.1Z" fill="#246688" stroke="#246688"></path><path d="M171 290.1L144 287L186 303.3Z" fill="#00101c" stroke="#00101c"></path><path d="M124 185.3L144 287L189 250.3Z" fill="#0c2435" stroke="#0c2435"></path><path d="M173 177.4L260 199.1L265 148.6Z" fill="#00101c" stroke="#00101c"></path><path d="M324 621.1L452 656.1L369 617.1Z" fill="#00101c" stroke="#00101c"></path><path d="M442 634.1L452 656.1L461 600Z" fill="#15384f" stroke="#15384f"></path><path d="M639 51.6L603 34.9L621 87.9Z" fill="#112e42" stroke="#112e42"></path><path d="M621 87.9L603 34.9L580 78.4Z" fill="#297ea6" stroke="#297ea6"></path><path d="M626 622.1L651 600L639 600Z" fill="#112e42" stroke="#112e42"></path><path d="M639 600L651 600L634 513.3Z" fill="#15384f" stroke="#15384f"></path><path d="M651 600L688 570.4L634 513.3Z" fill="#00101c" stroke="#00101c"></path><path d="M714 521.1L765 511.6L715 484.4Z" fill="#00101c" stroke="#00101c"></path><path d="M631 133.4L638 156.3L695 79.7Z" fill="#246688" stroke="#246688"></path><path d="M192 129.4L173 177.4L265 148.6Z" fill="#15384f" stroke="#15384f"></path><path d="M695 79.7L638 156.3L721 86.7Z" fill="#277297" stroke="#277297"></path><path d="M803 331.7L761 317.9L738 360.7Z" fill="#19435d" stroke="#19435d"></path><path d="M761 317.9L796 302.1L725 301.7Z" fill="#297ea6" stroke="#297ea6"></path><path d="M276 23.9L241 83.4L337 60.7Z" fill="#1d4e6b" stroke="#1d4e6b"></path><path d="M337 60.7L241 83.4L339 82.7Z" fill="#00101c" stroke="#00101c"></path><path d="M646 647.1L626 622.1L581 600Z" fill="#15384f" stroke="#15384f"></path><path d="M651 600L681 600L688 570.4Z" fill="#297ea6" stroke="#297ea6"></path><path d="M540 0L456 56.6L540 73.9Z" fill="#297ea6" stroke="#297ea6"></path><path d="M426 26.7L416 0L383 46.9Z" fill="#277297" stroke="#277297"></path><path d="M754 455.6L803 331.7L738 360.7Z" fill="#081a28" stroke="#081a28"></path><path d="M241 83.4L192 129.4L265 148.6Z" fill="#297ea6" stroke="#297ea6"></path><path d="M615 0L540 0L603 34.9Z" fill="#1d4e6b" stroke="#1d4e6b"></path><path d="M603 34.9L540 0L540 73.9Z" fill="#112e42" stroke="#112e42"></path><path d="M615 0L615 20.9L624 0Z" fill="#277297" stroke="#277297"></path><path d="M639 51.6L615 20.9L603 34.9Z" fill="#19435d" stroke="#19435d"></path><path d="M721 86.7L638 156.3L684 204.4Z" fill="#1d4e6b" stroke="#1d4e6b"></path><path d="M416 0L375 0L383 46.9Z" fill="#0c2435" stroke="#0c2435"></path><path d="M615 20.9L654 0L624 0Z" fill="#19435d" stroke="#19435d"></path><path d="M677 607.1L681 600L651 600Z" fill="#081a28" stroke="#081a28"></path><path d="M688 570.4L713 572.3L714 521.1Z" fill="#1d4e6b" stroke="#1d4e6b"></path><path d="M695 600L713 572.3L688 570.4Z" fill="#0c2435" stroke="#0c2435"></path><path d="M754 455.6L857 434.4L803 331.7Z" fill="#081a28" stroke="#081a28"></path><path d="M166 399.9L132 433.4L183 428.3Z" fill="#0c2435" stroke="#0c2435"></path><path d="M85 407.6L132 433.4L166 399.9Z" fill="#297ea6" stroke="#297ea6"></path><path d="M646 647.1L677 607.1L651 600Z" fill="#0c2435" stroke="#0c2435"></path><path d="M681 600L695 600L688 570.4Z" fill="#297ea6" stroke="#297ea6"></path><path d="M767 547.4L765 511.6L714 521.1Z" fill="#15384f" stroke="#15384f"></path><path d="M795 180.3L721 86.7L684 204.4Z" fill="#19435d" stroke="#19435d"></path><path d="M615 20.9L639 51.6L654 0Z" fill="#19435d" stroke="#19435d"></path><path d="M795 180.3L711 223.6L764 221.3Z" fill="#297ea6" stroke="#297ea6"></path><path d="M375 0L336 0L383 46.9Z" fill="#277297" stroke="#277297"></path><path d="M677 607.1L695 600L681 600Z" fill="#00101c" stroke="#00101c"></path><path d="M713 572.3L767 547.4L714 521.1Z" fill="#205a7a" stroke="#205a7a"></path><path d="M124 185.3L144 172.7L121 173.4Z" fill="#1d4e6b" stroke="#1d4e6b"></path><path d="M192 129.4L144 172.7L173 177.4Z" fill="#205a7a" stroke="#205a7a"></path><path d="M173 177.4L124 185.3L189 250.3Z" fill="#246688" stroke="#246688"></path><path d="M144 287L94 316.7L191 374.6Z" fill="#297ea6" stroke="#297ea6"></path><path d="M319 0L276 23.9L337 60.7Z" fill="#0c2435" stroke="#0c2435"></path><path d="M241 83.4L179 91.7L192 129.4Z" fill="#0c2435" stroke="#0c2435"></path><path d="M336 0L319 0L337 60.7Z" fill="#277297" stroke="#277297"></path><path d="M823 231L764 221.3L831 254.9Z" fill="#19435d" stroke="#19435d"></path><path d="M823 231L795 180.3L764 221.3Z" fill="#19435d" stroke="#19435d"></path><path d="M639 51.6L667 67.7L677 17.9Z" fill="#246688" stroke="#246688"></path><path d="M615 20.9L615 0L603 34.9Z" fill="#277297" stroke="#277297"></path><path d="M375 0L340 -11.1L336 0Z" fill="#15384f" stroke="#15384f"></path><path d="M336 0L340 -11.1L319 0Z" fill="#246688" stroke="#246688"></path><path d="M439 -36.1L340 -11.1L375 0Z" fill="#15384f" stroke="#15384f"></path><path d="M439 -36.1L375 0L416 0Z" fill="#277297" stroke="#277297"></path><path d="M426 26.7L456 56.6L484 -38.1Z" fill="#081a28" stroke="#081a28"></path><path d="M626 622.1L646 647.1L651 600Z" fill="#246688" stroke="#246688"></path><path d="M677 607.1L646 647.1L695 600Z" fill="#112e42" stroke="#112e42"></path><path d="M452 656.1L646 647.1L581 600Z" fill="#297ea6" stroke="#297ea6"></path><path d="M677 17.9L667 67.7L695 79.7Z" fill="#112e42" stroke="#112e42"></path><path d="M484 -38.1L456 56.6L540 0Z" fill="#0c2435" stroke="#0c2435"></path><path d="M132 433.4L136 493.6L194 444.3Z" fill="#081a28" stroke="#081a28"></path><path d="M197 507.4L212 600L236 548.3Z" fill="#246688" stroke="#246688"></path><path d="M236 548.3L212 600L324 621.1Z" fill="#246688" stroke="#246688"></path><path d="M484 -38.1L540 0L592 -31.1Z" fill="#00101c" stroke="#00101c"></path><path d="M72 207L97 303L144 287Z" fill="#246688" stroke="#246688"></path><path d="M105 533.3L134 507.1L80 502.1Z" fill="#205a7a" stroke="#205a7a"></path><path d="M592 -31.1L540 0L615 0Z" fill="#246688" stroke="#246688"></path><path d="M157 600L212 600L197 507.4Z" fill="#081a28" stroke="#081a28"></path><path d="M324 621.1L196 636.1L452 656.1Z" fill="#00101c" stroke="#00101c"></path><path d="M129 131.9L144 172.7L192 129.4Z" fill="#246688" stroke="#246688"></path><path d="M144 172.7L124 185.3L173 177.4Z" fill="#00101c" stroke="#00101c"></path><path d="M97 303L94 316.7L144 287Z" fill="#081a28" stroke="#081a28"></path><path d="M292 0L304 -4.3L214 -51.1Z" fill="#277297" stroke="#277297"></path><path d="M340 -11.1L304 -4.3L319 0Z" fill="#1d4e6b" stroke="#1d4e6b"></path><path d="M319 0L295 0L276 23.9Z" fill="#1d4e6b" stroke="#1d4e6b"></path><path d="M304 -4.3L295 0L319 0Z" fill="#112e42" stroke="#112e42"></path><path d="M182 71.7L179 91.7L241 83.4Z" fill="#15384f" stroke="#15384f"></path><path d="M831 254.9L764 221.3L796 302.1Z" fill="#0c2435" stroke="#0c2435"></path><path d="M773 571.3L767 547.4L713 572.3Z" fill="#205a7a" stroke="#205a7a"></path><path d="M765 511.6L849 472.3L754 455.6Z" fill="#205a7a" stroke="#205a7a"></path><path d="M803 331.7L831 254.9L796 302.1Z" fill="#205a7a" stroke="#205a7a"></path><path d="M735 600L713 572.3L695 600Z" fill="#081a28" stroke="#081a28"></path><path d="M182 71.7L241 83.4L194 44.6Z" fill="#112e42" stroke="#112e42"></path><path d="M304 -4.3L292 0L295 0Z" fill="#0c2435" stroke="#0c2435"></path><path d="M295 0L292 0L276 23.9Z" fill="#205a7a" stroke="#205a7a"></path><path d="M900 336L831 254.9L803 331.7Z" fill="#297ea6" stroke="#297ea6"></path><path d="M80 502.1L136 493.6L132 433.4Z" fill="#205a7a" stroke="#205a7a"></path><path d="M136 493.6L134 507.1L197 507.4Z" fill="#15384f" stroke="#15384f"></path><path d="M745 36.7L695 79.7L721 86.7Z" fill="#1d4e6b" stroke="#1d4e6b"></path><path d="M745 36.7L677 17.9L695 79.7Z" fill="#112e42" stroke="#112e42"></path><path d="M129 131.9L121 173.4L144 172.7Z" fill="#00101c" stroke="#00101c"></path><path d="M72 207L70 304.3L97 303Z" fill="#00101c" stroke="#00101c"></path><path d="M70 304.3L86 326.9L94 316.7Z" fill="#246688" stroke="#246688"></path><path d="M70 304.3L94 316.7L97 303Z" fill="#246688" stroke="#246688"></path><path d="M94 316.7L86 326.9L166 399.9Z" fill="#277297" stroke="#277297"></path><path d="M677 17.9L654 0L639 51.6Z" fill="#277297" stroke="#277297"></path><path d="M624 0L592 -31.1L615 0Z" fill="#246688" stroke="#246688"></path><path d="M755 613.3L735 600L695 600Z" fill="#0c2435" stroke="#0c2435"></path><path d="M194 44.6L241 83.4L276 23.9Z" fill="#081a28" stroke="#081a28"></path><path d="M179 91.7L129 131.9L192 129.4Z" fill="#112e42" stroke="#112e42"></path><path d="M654 0L592 -31.1L624 0Z" fill="#246688" stroke="#246688"></path><path d="M182 71.7L174 79.6L179 91.7Z" fill="#277297" stroke="#277297"></path><path d="M677 17.9L661 0L654 0Z" fill="#081a28" stroke="#081a28"></path><path d="M654 0L661 0L592 -31.1Z" fill="#0c2435" stroke="#0c2435"></path><path d="M803 547.1L793 530.1L767 547.4Z" fill="#277297" stroke="#277297"></path><path d="M767 547.4L793 530.1L765 511.6Z" fill="#19435d" stroke="#19435d"></path><path d="M845 200.1L883 185.6L865 178.4Z" fill="#1d4e6b" stroke="#1d4e6b"></path><path d="M831 254.9L836 228.3L823 231Z" fill="#0c2435" stroke="#0c2435"></path><path d="M823 231L845 200.1L795 180.3Z" fill="#15384f" stroke="#15384f"></path><path d="M727 0L666 0L677 17.9Z" fill="#205a7a" stroke="#205a7a"></path><path d="M196 636.1L218 627.1L212 600Z" fill="#1d4e6b" stroke="#1d4e6b"></path><path d="M212 600L218 627.1L324 621.1Z" fill="#19435d" stroke="#19435d"></path><path d="M745 36.7L721 86.7L783 65.7Z" fill="#246688" stroke="#246688"></path><path d="M677 17.9L666 0L661 0Z" fill="#297ea6" stroke="#297ea6"></path><path d="M661 0L666 0L592 -31.1Z" fill="#277297" stroke="#277297"></path><path d="M86 326.9L85 407.6L166 399.9Z" fill="#19435d" stroke="#19435d"></path><path d="M123 107.6L129 131.9L179 91.7Z" fill="#297ea6" stroke="#297ea6"></path><path d="M72 207L144 287L124 185.3Z" fill="#19435d" stroke="#19435d"></path><path d="M735 600L773 571.3L713 572.3Z" fill="#277297" stroke="#277297"></path><path d="M139 38.6L127 82.9L174 79.6Z" fill="#00101c" stroke="#00101c"></path><path d="M127 82.9L123 107.6L179 91.7Z" fill="#00101c" stroke="#00101c"></path><path d="M187 2.9L194 44.6L276 23.9Z" fill="#15384f" stroke="#15384f"></path><path d="M72 207L124 185.3L121 173.4Z" fill="#246688" stroke="#246688"></path><path d="M86 326.9L55 357.7L85 407.6Z" fill="#15384f" stroke="#15384f"></path><path d="M773 571.3L803 547.1L767 547.4Z" fill="#205a7a" stroke="#205a7a"></path><path d="M849 472.3L857 434.4L754 455.6Z" fill="#205a7a" stroke="#205a7a"></path><path d="M845 200.1L836 228.3L900 207.6Z" fill="#277297" stroke="#277297"></path><path d="M836 228.3L845 200.1L823 231Z" fill="#15384f" stroke="#15384f"></path><path d="M646 647.1L755 613.3L695 600Z" fill="#1d4e6b" stroke="#1d4e6b"></path><path d="M735 600L755 613.3L773 571.3Z" fill="#277297" stroke="#277297"></path><path d="M773 571.3L820 554.4L803 547.1Z" fill="#081a28" stroke="#081a28"></path><path d="M849 472.3L765 511.6L793 530.1Z" fill="#205a7a" stroke="#205a7a"></path><path d="M783 65.7L721 86.7L795 180.3Z" fill="#277297" stroke="#277297"></path><path d="M157 600L196 636.1L212 600Z" fill="#19435d" stroke="#19435d"></path><path d="M218 627.1L196 636.1L324 621.1Z" fill="#246688" stroke="#246688"></path><path d="M157 600L197 507.4L134 507.1Z" fill="#297ea6" stroke="#297ea6"></path><path d="M115 104.4L123 107.6L127 82.9Z" fill="#246688" stroke="#246688"></path><path d="M78 122.6L72 207L121 173.4Z" fill="#112e42" stroke="#112e42"></path><path d="M105 533.3L157 600L134 507.1Z" fill="#205a7a" stroke="#205a7a"></path><path d="M820 554.4L849 472.3L793 530.1Z" fill="#1d4e6b" stroke="#1d4e6b"></path><path d="M70 304.3L55 357.7L86 326.9Z" fill="#112e42" stroke="#112e42"></path><path d="M80 502.1L134 507.1L136 493.6Z" fill="#00101c" stroke="#00101c"></path><path d="M9 361.7L55 357.7L0 324Z" fill="#00101c" stroke="#00101c"></path><path d="M78 122.6L121 173.4L129 131.9Z" fill="#19435d" stroke="#19435d"></path><path d="M80 502.1L132 433.4L85 407.6Z" fill="#081a28" stroke="#081a28"></path><path d="M888 142.4L783 65.7L795 180.3Z" fill="#19435d" stroke="#19435d"></path><path d="M127 82.9L179 91.7L174 79.6Z" fill="#277297" stroke="#277297"></path><path d="M123 107.6L115 104.4L129 131.9Z" fill="#00101c" stroke="#00101c"></path><path d="M139 38.6L174 79.6L182 71.7Z" fill="#0c2435" stroke="#0c2435"></path><path d="M816 600L820 554.4L773 571.3Z" fill="#19435d" stroke="#19435d"></path><path d="M803 547.1L820 554.4L793 530.1Z" fill="#277297" stroke="#277297"></path><path d="M45 432.4L80 502.1L85 407.6Z" fill="#205a7a" stroke="#205a7a"></path><path d="M105 533.3L129 600L157 600Z" fill="#0c2435" stroke="#0c2435"></path><path d="M757 0L727 0L745 36.7Z" fill="#19435d" stroke="#19435d"></path><path d="M745 36.7L727 0L677 17.9Z" fill="#297ea6" stroke="#297ea6"></path><path d="M666 0L727 0L592 -31.1Z" fill="#00101c" stroke="#00101c"></path><path d="M900 336L892 347L900 377.7Z" fill="#0c2435" stroke="#0c2435"></path><path d="M900 377.7L892 347L803 331.7Z" fill="#1d4e6b" stroke="#1d4e6b"></path><path d="M883 185.6L845 200.1L900 207.6Z" fill="#081a28" stroke="#081a28"></path><path d="M845 200.1L865 178.4L795 180.3Z" fill="#15384f" stroke="#15384f"></path><path d="M214 -51.1L187 2.9L276 23.9Z" fill="#15384f" stroke="#15384f"></path><path d="M194 44.6L139 38.6L182 71.7Z" fill="#246688" stroke="#246688"></path><path d="M214 -51.1L276 23.9L292 0Z" fill="#112e42" stroke="#112e42"></path><path d="M214 -51.1L304 -4.3L340 -11.1Z" fill="#00101c" stroke="#00101c"></path><path d="M111 600L129 600L105 533.3Z" fill="#277297" stroke="#277297"></path><path d="M157 600L129 600L196 636.1Z" fill="#15384f" stroke="#15384f"></path><path d="M13 389.4L85 407.6L55 357.7Z" fill="#246688" stroke="#246688"></path><path d="M13 389.4L45 432.4L85 407.6Z" fill="#277297" stroke="#277297"></path><path d="M80 502.1L83 533.1L105 533.3Z" fill="#15384f" stroke="#15384f"></path><path d="M67 509.6L83 533.1L80 502.1Z" fill="#246688" stroke="#246688"></path><path d="M28 175.1L46 218L72 207Z" fill="#15384f" stroke="#15384f"></path><path d="M72 207L46 218L70 304.3Z" fill="#112e42" stroke="#112e42"></path><path d="M78 122.6L129 131.9L115 104.4Z" fill="#277297" stroke="#277297"></path><path d="M900 377.7L803 331.7L857 434.4Z" fill="#00101c" stroke="#00101c"></path><path d="M892 347L900 336L803 331.7Z" fill="#297ea6" stroke="#297ea6"></path><path d="M900 377.7L857 434.4L900 443.6Z" fill="#277297" stroke="#277297"></path><path d="M45 432.4L67 509.6L80 502.1Z" fill="#15384f" stroke="#15384f"></path><path d="M187 2.9L139 38.6L194 44.6Z" fill="#15384f" stroke="#15384f"></path><path d="M53 48.7L78 122.6L115 104.4Z" fill="#1d4e6b" stroke="#1d4e6b"></path><path d="M900 443.6L857 434.4L849 472.3Z" fill="#205a7a" stroke="#205a7a"></path><path d="M53 48.7L115 104.4L127 82.9Z" fill="#277297" stroke="#277297"></path><path d="M770 -12.1L757 0L804 0.7Z" fill="#205a7a" stroke="#205a7a"></path><path d="M804 0.7L757 0L745 36.7Z" fill="#15384f" stroke="#15384f"></path><path d="M727 0L770 -12.1L592 -31.1Z" fill="#00101c" stroke="#00101c"></path><path d="M900 248.9L836 228.3L831 254.9Z" fill="#112e42" stroke="#112e42"></path><path d="M865 178.4L888 142.4L795 180.3Z" fill="#1d4e6b" stroke="#1d4e6b"></path><path d="M900 336L900 248.9L831 254.9Z" fill="#205a7a" stroke="#205a7a"></path><path d="M755 613.3L816 600L773 571.3Z" fill="#297ea6" stroke="#297ea6"></path><path d="M900 473.3L900 443.6L849 472.3Z" fill="#205a7a" stroke="#205a7a"></path><path d="M890 600L816 600L900 630.1Z" fill="#277297" stroke="#277297"></path><path d="M2 252.9L27 259.1L4 210.3Z" fill="#15384f" stroke="#15384f"></path><path d="M46 218L27 259.1L70 304.3Z" fill="#0c2435" stroke="#0c2435"></path><path d="M91 600L105 533.3L83 533.1Z" fill="#246688" stroke="#246688"></path><path d="M91 600L111 600L105 533.3Z" fill="#297ea6" stroke="#297ea6"></path><path d="M129 600L111 600L196 636.1Z" fill="#246688" stroke="#246688"></path><path d="M900 473.3L849 472.3L900 543.4Z" fill="#112e42" stroke="#112e42"></path><path d="M900 248.9L900 207.6L836 228.3Z" fill="#205a7a" stroke="#205a7a"></path><path d="M804 0.7L745 36.7L783 65.7Z" fill="#297ea6" stroke="#297ea6"></path><path d="M900 207.6L900 205.3L883 185.6Z" fill="#246688" stroke="#246688"></path><path d="M900 205.3L900 198.1L883 185.6Z" fill="#1d4e6b" stroke="#1d4e6b"></path><path d="M9 361.7L13 389.4L55 357.7Z" fill="#15384f" stroke="#15384f"></path><path d="M45 432.4L0 485.1L67 509.6Z" fill="#0c2435" stroke="#0c2435"></path><path d="M187 2.9L121 0L139 38.6Z" fill="#19435d" stroke="#19435d"></path><path d="M439 -36.1L214 -51.1L340 -11.1Z" fill="#15384f" stroke="#15384f"></path><path d="M484 -38.1L214 -51.1L439 -36.1Z" fill="#081a28" stroke="#081a28"></path><path d="M0 324L55 357.7L70 304.3Z" fill="#0c2435" stroke="#0c2435"></path><path d="M900 543.4L849 472.3L820 554.4Z" fill="#1d4e6b" stroke="#1d4e6b"></path><path d="M888 142.4L865 178.4L883 185.6Z" fill="#00101c" stroke="#00101c"></path><path d="M757 0L770 -12.1L727 0Z" fill="#0c2435" stroke="#0c2435"></path><path d="M55 600L83 533.1L30 562.1Z" fill="#246688" stroke="#246688"></path><path d="M55 600L91 600L83 533.1Z" fill="#19435d" stroke="#19435d"></path><path d="M111 600L91 600L196 636.1Z" fill="#15384f" stroke="#15384f"></path><path d="M900 198.1L900 176.4L883 185.6Z" fill="#277297" stroke="#277297"></path><path d="M900 176.4L888 142.4L883 185.6Z" fill="#19435d" stroke="#19435d"></path><path d="M900 248.9L919 191.3L900 207.6Z" fill="#0c2435" stroke="#0c2435"></path><path d="M900 207.6L919 191.3L900 205.3Z" fill="#277297" stroke="#277297"></path><path d="M900 205.3L919 191.3L900 198.1Z" fill="#1d4e6b" stroke="#1d4e6b"></path><path d="M900 198.1L919 191.3L900 176.4Z" fill="#297ea6" stroke="#297ea6"></path><path d="M900 336L928 327L900 248.9Z" fill="#15384f" stroke="#15384f"></path><path d="M900 377.7L928 327L900 336Z" fill="#1d4e6b" stroke="#1d4e6b"></path><path d="M951 408.6L928 327L900 377.7Z" fill="#15384f" stroke="#15384f"></path><path d="M951 408.6L900 377.7L900 443.6Z" fill="#112e42" stroke="#112e42"></path><path d="M0 184.1L28 175.1L0 106.9Z" fill="#1d4e6b" stroke="#1d4e6b"></path><path d="M78 122.6L28 175.1L72 207Z" fill="#00101c" stroke="#00101c"></path><path d="M0 312.3L0 324L70 304.3Z" fill="#205a7a" stroke="#205a7a"></path><path d="M0 312.3L70 304.3L27 259.1Z" fill="#297ea6" stroke="#297ea6"></path><path d="M9 361.7L0 410.9L13 389.4Z" fill="#1d4e6b" stroke="#1d4e6b"></path><path d="M2 252.9L0 312.3L27 259.1Z" fill="#205a7a" stroke="#205a7a"></path><path d="M4 210.3L27 259.1L46 218Z" fill="#205a7a" stroke="#205a7a"></path><path d="M0 324L0 410.9L9 361.7Z" fill="#19435d" stroke="#19435d"></path><path d="M13 389.4L0 410.9L45 432.4Z" fill="#297ea6" stroke="#297ea6"></path><path d="M878 0L804 0.7L783 65.7Z" fill="#00101c" stroke="#00101c"></path><path d="M900 176.4L900 133.7L888 142.4Z" fill="#277297" stroke="#277297"></path><path d="M888 142.4L908 79.9L783 65.7Z" fill="#15384f" stroke="#15384f"></path><path d="M928 327L919 191.3L900 248.9Z" fill="#112e42" stroke="#112e42"></path><path d="M28 175.1L4 210.3L46 218Z" fill="#1d4e6b" stroke="#1d4e6b"></path><path d="M214 -51.1L121 0L187 2.9Z" fill="#277297" stroke="#277297"></path><path d="M139 38.6L53 48.7L127 82.9Z" fill="#081a28" stroke="#081a28"></path><path d="M0 204.6L0 206.4L4 210.3Z" fill="#0c2435" stroke="#0c2435"></path><path d="M919 191.3L900 133.7L900 176.4Z" fill="#081a28" stroke="#081a28"></path><path d="M0 410.9L0 445.4L45 432.4Z" fill="#081a28" stroke="#081a28"></path><path d="M0 445.4L0 447.6L45 432.4Z" fill="#19435d" stroke="#19435d"></path><path d="M0 204.6L4 210.3L28 175.1Z" fill="#297ea6" stroke="#297ea6"></path><path d="M4 210.3L0 206.4L2 252.9Z" fill="#297ea6" stroke="#297ea6"></path><path d="M2 252.9L0 206.4L0 312.3Z" fill="#1d4e6b" stroke="#1d4e6b"></path><path d="M0 184.1L0 204.6L28 175.1Z" fill="#297ea6" stroke="#297ea6"></path><path d="M0 447.6L0 464.7L45 432.4Z" fill="#112e42" stroke="#112e42"></path><path d="M890 600L900 543.4L820 554.4Z" fill="#297ea6" stroke="#297ea6"></path><path d="M900 473.3L951 408.6L900 443.6Z" fill="#297ea6" stroke="#297ea6"></path><path d="M214 -51.1L113 -4.1L121 0Z" fill="#15384f" stroke="#15384f"></path><path d="M121 0L102 0L139 38.6Z" fill="#246688" stroke="#246688"></path><path d="M0 106.9L28 175.1L78 122.6Z" fill="#246688" stroke="#246688"></path><path d="M0 464.7L0 485.1L45 432.4Z" fill="#297ea6" stroke="#297ea6"></path><path d="M30 562.1L83 533.1L67 509.6Z" fill="#15384f" stroke="#15384f"></path><path d="M91 600L55 600L196 636.1Z" fill="#1d4e6b" stroke="#1d4e6b"></path><path d="M43 0L102 0L113 -4.1Z" fill="#1d4e6b" stroke="#1d4e6b"></path><path d="M113 -4.1L102 0L121 0Z" fill="#15384f" stroke="#15384f"></path><path d="M900 543.4L951 408.6L900 473.3Z" fill="#081a28" stroke="#081a28"></path><path d="M928 327L950 70.6L919 191.3Z" fill="#297ea6" stroke="#297ea6"></path><path d="M0 485.1L30 562.1L67 509.6Z" fill="#112e42" stroke="#112e42"></path><path d="M102 0L53 48.7L139 38.6Z" fill="#00101c" stroke="#00101c"></path><path d="M878 0L811 -34.1L804 0.7Z" fill="#15384f" stroke="#15384f"></path><path d="M804 0.7L811 -34.1L770 -12.1Z" fill="#081a28" stroke="#081a28"></path><path d="M770 -12.1L811 -34.1L592 -31.1Z" fill="#0c2435" stroke="#0c2435"></path><path d="M592 -31.1L811 -34.1L484 -38.1Z" fill="#19435d" stroke="#19435d"></path><path d="M484 -38.1L811 -34.1L214 -51.1Z" fill="#19435d" stroke="#19435d"></path><path d="M816 600L890 600L820 554.4Z" fill="#1d4e6b" stroke="#1d4e6b"></path><path d="M900 543.4L900 600L951 408.6Z" fill="#277297" stroke="#277297"></path><path d="M900 630.1L816 600L755 613.3Z" fill="#1d4e6b" stroke="#1d4e6b"></path><path d="M950 70.6L908 79.9L900 133.7Z" fill="#19435d" stroke="#19435d"></path><path d="M900 133.7L908 79.9L888 142.4Z" fill="#112e42" stroke="#112e42"></path><path d="M950 70.6L900 133.7L919 191.3Z" fill="#1d4e6b" stroke="#1d4e6b"></path><path d="M900 630.1L900 600L890 600Z" fill="#297ea6" stroke="#297ea6"></path><path d="M890 600L900 600L900 543.4Z" fill="#297ea6" stroke="#297ea6"></path><path d="M53 48.7L0 106.9L78 122.6Z" fill="#00101c" stroke="#00101c"></path><path d="M0 485.1L0 570.3L30 562.1Z" fill="#081a28" stroke="#081a28"></path><path d="M30 562.1L0 600L55 600Z" fill="#00101c" stroke="#00101c"></path><path d="M0 464.7L-3 570.3L0 485.1Z" fill="#205a7a" stroke="#205a7a"></path><path d="M0 485.1L-3 570.3L0 570.3Z" fill="#081a28" stroke="#081a28"></path><path d="M0 570.3L0 600L30 562.1Z" fill="#205a7a" stroke="#205a7a"></path><path d="M0 447.6L-3 570.3L0 464.7Z" fill="#15384f" stroke="#15384f"></path><path d="M0 445.4L-3 570.3L0 447.6Z" fill="#19435d" stroke="#19435d"></path><path d="M0 410.9L-3 570.3L0 445.4Z" fill="#277297" stroke="#277297"></path><path d="M0 324L-3 570.3L0 410.9Z" fill="#297ea6" stroke="#297ea6"></path><path d="M0 312.3L-3 570.3L0 324Z" fill="#00101c" stroke="#00101c"></path><path d="M0 206.4L-3 570.3L0 312.3Z" fill="#00101c" stroke="#00101c"></path><path d="M0 204.6L-3 570.3L0 206.4Z" fill="#15384f" stroke="#15384f"></path><path d="M0 184.1L-3 570.3L0 204.6Z" fill="#277297" stroke="#277297"></path><path d="M0 106.9L-3 570.3L0 184.1Z" fill="#15384f" stroke="#15384f"></path><path d="M646 647.1L900 630.1L755 613.3Z" fill="#15384f" stroke="#15384f"></path><path d="M900 600L900 630.1L951 408.6Z" fill="#19435d" stroke="#19435d"></path><path d="M908 79.9L878 0L783 65.7Z" fill="#112e42" stroke="#112e42"></path><path d="M53 48.7L0 0L0 106.9Z" fill="#1d4e6b" stroke="#1d4e6b"></path><path d="M102 0L43 0L53 48.7Z" fill="#0c2435" stroke="#0c2435"></path><path d="M0 -11.3L43 0L113 -4.1Z" fill="#205a7a" stroke="#205a7a"></path><path d="M-3 570.3L0 600L0 570.3Z" fill="#112e42" stroke="#112e42"></path><path d="M55 600L0 600L196 636.1Z" fill="#205a7a" stroke="#205a7a"></path><path d="M900 0L900 0.9L950 70.6Z" fill="#19435d" stroke="#19435d"></path><path d="M908 79.9L900 0.9L878 0Z" fill="#00101c" stroke="#00101c"></path><path d="M878 0L900 0L811 -34.1Z" fill="#246688" stroke="#246688"></path><path d="M950 70.6L900 0.9L908 79.9Z" fill="#277297" stroke="#277297"></path><path d="M900 0.9L900 0L878 0Z" fill="#19435d" stroke="#19435d"></path><path d="M0 -11.3L26 0L43 0Z" fill="#1d4e6b" stroke="#1d4e6b"></path><path d="M43 0L26 0L53 48.7Z" fill="#1d4e6b" stroke="#1d4e6b"></path><path d="M951 408.6L950 70.6L928 327Z" fill="#297ea6" stroke="#297ea6"></path><path d="M0 -11.3L0 0L26 0Z" fill="#00101c" stroke="#00101c"></path><path d="M26 0L0 0L53 48.7Z" fill="#081a28" stroke="#081a28"></path><path d="M0 106.9L0 0L-3 570.3Z" fill="#081a28" stroke="#081a28"></path><path d="M214 -51.1L0 -11.3L113 -4.1Z" fill="#112e42" stroke="#112e42"></path><path d="M0 0L0 -11.3L-3 570.3Z" fill="#205a7a" stroke="#205a7a"></path></g></svg>