<svg id="visual" viewBox="0 0 900 600" width="900" height="600" xmlns="http://www.w3.org/2000/svg" xmlns:xlink="http://www.w3.org/1999/xlink" version="1.1"><g stroke-width="1" stroke-linejoin="bevel"><path d="M445 280.3L459 298L470 286.1Z" fill="#006877" stroke="#006877"></path><path d="M459 298L497 316.1L470 286.1Z" fill="#00b894" stroke="#00b894"></path><path d="M462 211.3L407 267L445 280.3Z" fill="#00b894" stroke="#00b894"></path><path d="M445 280.3L407 303.9L459 298Z" fill="#006877" stroke="#006877"></path><path d="M407 267L407 303.9L445 280.3Z" fill="#035566" stroke="#035566"></path><path d="M459 298L464 378.4L497 316.1Z" fill="#074254" stroke="#074254"></path><path d="M497 316.1L499 238.4L470 286.1Z" fill="#074254" stroke="#074254"></path><path d="M470 286.1L499 238.4L445 280.3Z" fill="#00101c" stroke="#00101c"></path><path d="M407 303.9L421 340.1L459 298Z" fill="#00a495" stroke="#00a495"></path><path d="M407 303.9L402 332L421 340.1Z" fill="#00cc8e" stroke="#00cc8e"></path><path d="M385 342L402 332L370 320.1Z" fill="#00cc8e" stroke="#00cc8e"></path><path d="M499 238.4L462 211.3L445 280.3Z" fill="#006877" stroke="#006877"></path><path d="M406 349.9L422 352.7L421 340.1Z" fill="#00101c" stroke="#00101c"></path><path d="M421 340.1L464 378.4L459 298Z" fill="#035566" stroke="#035566"></path><path d="M499 238.4L496 216.4L462 211.3Z" fill="#006877" stroke="#006877"></path><path d="M402 332L406 349.9L421 340.1Z" fill="#007c86" stroke="#007c86"></path><path d="M370 320.1L402 332L407 303.9Z" fill="#00101c" stroke="#00101c"></path><path d="M402 332L385 342L406 349.9Z" fill="#00a495" stroke="#00a495"></path><path d="M364 216L370 252.3L407 267Z" fill="#093141" stroke="#093141"></path><path d="M407 267L370 252.3L407 303.9Z" fill="#00b894" stroke="#00b894"></path><path d="M446 417.9L422 352.7L406 349.9Z" fill="#006877" stroke="#006877"></path><path d="M446 417.9L464 378.4L422 352.7Z" fill="#00101c" stroke="#00101c"></path><path d="M422 352.7L464 378.4L421 340.1Z" fill="#035566" stroke="#035566"></path><path d="M370 252.3L370 320.1L407 303.9Z" fill="#074254" stroke="#074254"></path><path d="M541 336.6L553 279.9L497 316.1Z" fill="#093141" stroke="#093141"></path><path d="M497 316.1L553 279.9L499 238.4Z" fill="#093141" stroke="#093141"></path><path d="M499 238.4L520 198.4L496 216.4Z" fill="#00101c" stroke="#00101c"></path><path d="M537 356.9L541 336.6L497 316.1Z" fill="#009090" stroke="#009090"></path><path d="M587 279.9L557 264.3L553 279.9Z" fill="#00101c" stroke="#00101c"></path><path d="M553 279.9L557 264.3L499 238.4Z" fill="#007c86" stroke="#007c86"></path><path d="M364 216L360 247.3L370 252.3Z" fill="#007c86" stroke="#007c86"></path><path d="M370 252.3L338 296L370 320.1Z" fill="#00b894" stroke="#00b894"></path><path d="M446 417.9L484 387.7L464 378.4Z" fill="#035566" stroke="#035566"></path><path d="M464 378.4L484 387.7L497 316.1Z" fill="#009090" stroke="#009090"></path><path d="M557 264.3L520 198.4L499 238.4Z" fill="#00b894" stroke="#00b894"></path><path d="M496 216.4L496 159.6L462 211.3Z" fill="#00101c" stroke="#00101c"></path><path d="M484 387.7L537 356.9L497 316.1Z" fill="#035566" stroke="#035566"></path><path d="M541 336.6L587 279.9L553 279.9Z" fill="#00b894" stroke="#00b894"></path><path d="M462 211.3L364 216L407 267Z" fill="#00101c" stroke="#00101c"></path><path d="M439 169.6L364 216L462 211.3Z" fill="#00a495" stroke="#00a495"></path><path d="M370 320.1L359 347.1L385 342Z" fill="#035566" stroke="#035566"></path><path d="M385 342L344 398.7L406 349.9Z" fill="#006877" stroke="#006877"></path><path d="M356 343.6L359 347.1L370 320.1Z" fill="#093141" stroke="#093141"></path><path d="M338 296L356 343.6L370 320.1Z" fill="#08202e" stroke="#08202e"></path><path d="M496 159.6L439 169.6L462 211.3Z" fill="#00101c" stroke="#00101c"></path><path d="M292 303.7L338 296L288 269.4Z" fill="#074254" stroke="#074254"></path><path d="M360 247.3L338 296L370 252.3Z" fill="#035566" stroke="#035566"></path><path d="M622 333L587 279.9L541 336.6Z" fill="#074254" stroke="#074254"></path><path d="M557 264.3L575 216.1L520 198.4Z" fill="#006877" stroke="#006877"></path><path d="M581 164.3L496 159.6L520 198.4Z" fill="#00cc8e" stroke="#00cc8e"></path><path d="M520 198.4L496 159.6L496 216.4Z" fill="#035566" stroke="#035566"></path><path d="M344 398.7L446 417.9L406 349.9Z" fill="#093141" stroke="#093141"></path><path d="M484 387.7L537 401.9L537 356.9Z" fill="#00cc8e" stroke="#00cc8e"></path><path d="M356 343.6L340 349.6L359 347.1Z" fill="#093141" stroke="#093141"></path><path d="M359 347.1L344 398.7L385 342Z" fill="#009090" stroke="#009090"></path><path d="M338 296L340 349.6L356 343.6Z" fill="#00cc8e" stroke="#00cc8e"></path><path d="M581 216.1L575 216.1L557 264.3Z" fill="#093141" stroke="#093141"></path><path d="M581 216.1L574 207.4L575 216.1Z" fill="#00a495" stroke="#00a495"></path><path d="M575 216.1L574 207.4L520 198.4Z" fill="#009090" stroke="#009090"></path><path d="M526 446.7L537 401.9L484 387.7Z" fill="#006877" stroke="#006877"></path><path d="M537 356.9L561 382L541 336.6Z" fill="#006877" stroke="#006877"></path><path d="M587 279.9L581 216.1L557 264.3Z" fill="#074254" stroke="#074254"></path><path d="M537 401.9L561 382L537 356.9Z" fill="#035566" stroke="#035566"></path><path d="M537 401.9L560 393.9L561 382Z" fill="#006877" stroke="#006877"></path><path d="M561 382L622 333L541 336.6Z" fill="#08202e" stroke="#08202e"></path><path d="M445 119.3L425 128.4L439 169.6Z" fill="#00b894" stroke="#00b894"></path><path d="M439 169.6L358 134.7L364 216Z" fill="#007c86" stroke="#007c86"></path><path d="M399 454.7L452 445.3L446 417.9Z" fill="#08202e" stroke="#08202e"></path><path d="M446 417.9L452 445.3L484 387.7Z" fill="#009090" stroke="#009090"></path><path d="M537 401.9L581 415.4L560 393.9Z" fill="#006877" stroke="#006877"></path><path d="M340 349.6L344 398.7L359 347.1Z" fill="#00b894" stroke="#00b894"></path><path d="M608 202.3L574 207.4L581 216.1Z" fill="#006877" stroke="#006877"></path><path d="M608 202.3L585 180.7L574 207.4Z" fill="#00101c" stroke="#00101c"></path><path d="M574 207.4L585 180.7L520 198.4Z" fill="#074254" stroke="#074254"></path><path d="M455 117.9L445 119.3L439 169.6Z" fill="#074254" stroke="#074254"></path><path d="M288 269.4L338 296L360 247.3Z" fill="#00cc8e" stroke="#00cc8e"></path><path d="M338 296L292 303.7L340 349.6Z" fill="#074254" stroke="#074254"></path><path d="M340 349.6L295 391.7L344 398.7Z" fill="#00b894" stroke="#00b894"></path><path d="M288 269.4L360 247.3L364 216Z" fill="#00a495" stroke="#00a495"></path><path d="M455 117.9L439 169.6L496 159.6Z" fill="#009090" stroke="#009090"></path><path d="M535 72.7L455 117.9L496 159.6Z" fill="#006877" stroke="#006877"></path><path d="M273 171.3L288 269.4L364 216Z" fill="#00b894" stroke="#00b894"></path><path d="M631 358.6L622 333L561 382Z" fill="#093141" stroke="#093141"></path><path d="M587 279.9L611 208.1L581 216.1Z" fill="#00cc8e" stroke="#00cc8e"></path><path d="M632 293.7L611 208.1L587 279.9Z" fill="#08202e" stroke="#08202e"></path><path d="M611 208.1L608 202.3L581 216.1Z" fill="#00b894" stroke="#00b894"></path><path d="M623 153.6L581 164.3L585 180.7Z" fill="#093141" stroke="#093141"></path><path d="M585 180.7L581 164.3L520 198.4Z" fill="#08202e" stroke="#08202e"></path><path d="M288 269.4L284 296.1L292 303.7Z" fill="#00a495" stroke="#00a495"></path><path d="M292 303.7L295 391.7L340 349.6Z" fill="#007c86" stroke="#007c86"></path><path d="M622 333L632 293.7L587 279.9Z" fill="#035566" stroke="#035566"></path><path d="M452 445.3L526 446.7L484 387.7Z" fill="#074254" stroke="#074254"></path><path d="M560 393.9L581 415.4L561 382Z" fill="#093141" stroke="#093141"></path><path d="M344 398.7L399 454.7L446 417.9Z" fill="#007c86" stroke="#007c86"></path><path d="M452 445.3L483 486.1L526 446.7Z" fill="#006877" stroke="#006877"></path><path d="M566 447.3L581 415.4L537 401.9Z" fill="#074254" stroke="#074254"></path><path d="M414 108.7L358 134.7L425 128.4Z" fill="#00cc8e" stroke="#00cc8e"></path><path d="M425 128.4L358 134.7L439 169.6Z" fill="#093141" stroke="#093141"></path><path d="M448 47.9L414 108.7L445 119.3Z" fill="#035566" stroke="#035566"></path><path d="M445 119.3L414 108.7L425 128.4Z" fill="#074254" stroke="#074254"></path><path d="M581 415.4L631 358.6L561 382Z" fill="#035566" stroke="#035566"></path><path d="M677 305.9L671 289.7L632 293.7Z" fill="#009090" stroke="#009090"></path><path d="M344 398.7L382 459.1L399 454.7Z" fill="#08202e" stroke="#08202e"></path><path d="M399 454.7L422 479.7L452 445.3Z" fill="#093141" stroke="#093141"></path><path d="M566 447.3L588 424.4L581 415.4Z" fill="#00b894" stroke="#00b894"></path><path d="M581 415.4L630 415.4L631 358.6Z" fill="#006877" stroke="#006877"></path><path d="M262 375.9L295 391.7L292 303.7Z" fill="#00a495" stroke="#00a495"></path><path d="M344 493.3L373 483.4L382 459.1Z" fill="#00a495" stroke="#00a495"></path><path d="M526 446.7L566 447.3L537 401.9Z" fill="#074254" stroke="#074254"></path><path d="M550 493.3L566 447.3L526 446.7Z" fill="#009090" stroke="#009090"></path><path d="M402 482.6L422 479.7L399 454.7Z" fill="#006877" stroke="#006877"></path><path d="M422 479.7L466 483.6L452 445.3Z" fill="#00101c" stroke="#00101c"></path><path d="M457 512.3L483 486.1L466 483.6Z" fill="#093141" stroke="#093141"></path><path d="M466 483.6L483 486.1L452 445.3Z" fill="#035566" stroke="#035566"></path><path d="M382 459.1L402 482.6L399 454.7Z" fill="#074254" stroke="#074254"></path><path d="M422 479.7L457 512.3L466 483.6Z" fill="#006877" stroke="#006877"></path><path d="M373 483.4L402 482.6L382 459.1Z" fill="#074254" stroke="#074254"></path><path d="M611 208.1L623 153.6L608 202.3Z" fill="#093141" stroke="#093141"></path><path d="M608 202.3L623 153.6L585 180.7Z" fill="#093141" stroke="#093141"></path><path d="M581 164.3L587 110.4L496 159.6Z" fill="#009090" stroke="#009090"></path><path d="M455 117.9L448 47.9L445 119.3Z" fill="#00b894" stroke="#00b894"></path><path d="M675 156.6L623 153.6L611 208.1Z" fill="#00a495" stroke="#00a495"></path><path d="M349 82.6L332 112.6L358 134.7Z" fill="#00cc8e" stroke="#00cc8e"></path><path d="M358 134.7L273 171.3L364 216Z" fill="#093141" stroke="#093141"></path><path d="M677 305.9L632 293.7L622 333Z" fill="#00101c" stroke="#00101c"></path><path d="M632 293.7L665 231.4L611 208.1Z" fill="#00a495" stroke="#00a495"></path><path d="M671 289.7L665 231.4L632 293.7Z" fill="#074254" stroke="#074254"></path><path d="M256 374L262 375.9L292 303.7Z" fill="#00a495" stroke="#00a495"></path><path d="M344 493.3L382 459.1L292 460.4Z" fill="#08202e" stroke="#08202e"></path><path d="M256 374L292 303.7L235 355.1Z" fill="#00a495" stroke="#00a495"></path><path d="M382 459.1L344 398.7L292 460.4Z" fill="#08202e" stroke="#08202e"></path><path d="M403 509.4L457 512.3L422 479.7Z" fill="#093141" stroke="#093141"></path><path d="M332 112.6L273 171.3L358 134.7Z" fill="#006877" stroke="#006877"></path><path d="M191 338.1L235 355.1L184 285.9Z" fill="#035566" stroke="#035566"></path><path d="M588 424.4L630 415.4L581 415.4Z" fill="#08202e" stroke="#08202e"></path><path d="M674 355.1L677 305.9L622 333Z" fill="#009090" stroke="#009090"></path><path d="M578 491.1L630 415.4L588 424.4Z" fill="#093141" stroke="#093141"></path><path d="M623 153.6L587 110.4L581 164.3Z" fill="#035566" stroke="#035566"></path><path d="M235 355.1L292 303.7L284 296.1Z" fill="#00b894" stroke="#00b894"></path><path d="M292 460.4L344 398.7L295 391.7Z" fill="#074254" stroke="#074254"></path><path d="M674 355.1L622 333L631 358.6Z" fill="#00a495" stroke="#00a495"></path><path d="M671 289.7L707 243.3L665 231.4Z" fill="#006877" stroke="#006877"></path><path d="M587 110.4L535 72.7L496 159.6Z" fill="#08202e" stroke="#08202e"></path><path d="M414 108.7L349 82.6L358 134.7Z" fill="#00cc8e" stroke="#00cc8e"></path><path d="M403 509.4L422 479.7L402 482.6Z" fill="#00cc8e" stroke="#00cc8e"></path><path d="M483 486.1L550 493.3L526 446.7Z" fill="#00cc8e" stroke="#00cc8e"></path><path d="M566 447.3L578 491.1L588 424.4Z" fill="#006877" stroke="#006877"></path><path d="M519 549.4L550 493.3L483 486.1Z" fill="#00a495" stroke="#00a495"></path><path d="M630 415.4L674 355.1L631 358.6Z" fill="#074254" stroke="#074254"></path><path d="M391 54.9L349 82.6L414 108.7Z" fill="#006877" stroke="#006877"></path><path d="M332 112.6L266 85.4L273 171.3Z" fill="#00a495" stroke="#00a495"></path><path d="M397 510.4L403 509.4L402 482.6Z" fill="#035566" stroke="#035566"></path><path d="M209 233.3L284 296.1L288 269.4Z" fill="#08202e" stroke="#08202e"></path><path d="M344 493.3L397 510.4L373 483.4Z" fill="#009090" stroke="#009090"></path><path d="M295 391.7L252 436.3L292 460.4Z" fill="#00cc8e" stroke="#00cc8e"></path><path d="M373 483.4L397 510.4L402 482.6Z" fill="#00b894" stroke="#00b894"></path><path d="M403 509.4L446 545.1L457 512.3Z" fill="#08202e" stroke="#08202e"></path><path d="M708 408.7L682 351.6L674 355.1Z" fill="#00cc8e" stroke="#00cc8e"></path><path d="M674 355.1L682 351.6L677 305.9Z" fill="#074254" stroke="#074254"></path><path d="M208 193.4L238 196.4L243 104.9Z" fill="#08202e" stroke="#08202e"></path><path d="M273 171.3L238 196.4L288 269.4Z" fill="#00101c" stroke="#00101c"></path><path d="M295 391.7L262 375.9L252 436.3Z" fill="#009090" stroke="#009090"></path><path d="M498 45.6L448 47.9L455 117.9Z" fill="#007c86" stroke="#007c86"></path><path d="M596 516.1L578 491.1L578 529.1Z" fill="#00cc8e" stroke="#00cc8e"></path><path d="M550 493.3L578 491.1L566 447.3Z" fill="#00a495" stroke="#00a495"></path><path d="M630 415.4L685 431.6L674 355.1Z" fill="#009090" stroke="#009090"></path><path d="M448 47.9L391 54.9L414 108.7Z" fill="#00101c" stroke="#00101c"></path><path d="M233 404.9L262 375.9L256 374Z" fill="#006877" stroke="#006877"></path><path d="M500 41.9L498 45.6L535 72.7Z" fill="#006877" stroke="#006877"></path><path d="M535 72.7L498 45.6L455 117.9Z" fill="#00101c" stroke="#00101c"></path><path d="M498 45.6L457 39.6L448 47.9Z" fill="#074254" stroke="#074254"></path><path d="M448 47.9L398 13.7L391 54.9Z" fill="#00a495" stroke="#00a495"></path><path d="M574 0L500 41.9L535 72.7Z" fill="#006877" stroke="#006877"></path><path d="M498 45.6L500 41.9L457 39.6Z" fill="#035566" stroke="#035566"></path><path d="M341 26.9L311 80.6L349 82.6Z" fill="#00b894" stroke="#00b894"></path><path d="M349 82.6L311 80.6L332 112.6Z" fill="#00b894" stroke="#00b894"></path><path d="M398 13.7L373 47.9L391 54.9Z" fill="#093141" stroke="#093141"></path><path d="M391 54.9L373 47.9L349 82.6Z" fill="#006877" stroke="#006877"></path><path d="M665 231.4L675 156.6L611 208.1Z" fill="#007c86" stroke="#007c86"></path><path d="M623 153.6L682 127.9L587 110.4Z" fill="#006877" stroke="#006877"></path><path d="M587 110.4L588 61.7L535 72.7Z" fill="#074254" stroke="#074254"></path><path d="M713 232.1L675 156.6L665 231.4Z" fill="#035566" stroke="#035566"></path><path d="M707 243.3L671 289.7L716 259Z" fill="#035566" stroke="#035566"></path><path d="M208 193.4L209 233.3L238 196.4Z" fill="#00101c" stroke="#00101c"></path><path d="M238 196.4L209 233.3L288 269.4Z" fill="#08202e" stroke="#08202e"></path><path d="M716 259L671 289.7L677 305.9Z" fill="#006877" stroke="#006877"></path><path d="M198 359.9L233 404.9L235 355.1Z" fill="#009090" stroke="#009090"></path><path d="M235 355.1L233 404.9L256 374Z" fill="#093141" stroke="#093141"></path><path d="M233 404.9L252 436.3L262 375.9Z" fill="#006877" stroke="#006877"></path><path d="M292 460.4L318 499.1L344 493.3Z" fill="#00a495" stroke="#00a495"></path><path d="M257 490.1L318 499.1L292 460.4Z" fill="#007c86" stroke="#007c86"></path><path d="M344 493.3L334 530.1L397 510.4Z" fill="#074254" stroke="#074254"></path><path d="M682 127.9L588 61.7L587 110.4Z" fill="#007c86" stroke="#007c86"></path><path d="M397 510.4L446 545.1L403 509.4Z" fill="#00101c" stroke="#00101c"></path><path d="M457 512.3L519 549.4L483 486.1Z" fill="#00b894" stroke="#00b894"></path><path d="M422 600L446 545.1L395 600Z" fill="#00cc8e" stroke="#00cc8e"></path><path d="M754 262.3L716 259L762 281Z" fill="#074254" stroke="#074254"></path><path d="M707 243.3L713 232.1L665 231.4Z" fill="#093141" stroke="#093141"></path><path d="M716 259L713 232.1L707 243.3Z" fill="#00a495" stroke="#00a495"></path><path d="M621 0L587 54.7L588 61.7Z" fill="#035566" stroke="#035566"></path><path d="M588 61.7L587 54.7L535 72.7Z" fill="#00101c" stroke="#00101c"></path><path d="M243 104.9L238 196.4L273 171.3Z" fill="#009090" stroke="#009090"></path><path d="M422 600L462 551.4L446 545.1Z" fill="#00b894" stroke="#00b894"></path><path d="M446 545.1L462 551.4L457 512.3Z" fill="#00101c" stroke="#00101c"></path><path d="M578 529.1L578 491.1L550 493.3Z" fill="#00a495" stroke="#00a495"></path><path d="M578 491.1L663 515.3L630 415.4Z" fill="#093141" stroke="#093141"></path><path d="M223 451.7L254 469.6L252 436.3Z" fill="#074254" stroke="#074254"></path><path d="M191 338.1L198 359.9L235 355.1Z" fill="#00101c" stroke="#00101c"></path><path d="M235 355.1L284 296.1L184 285.9Z" fill="#006877" stroke="#006877"></path><path d="M663 515.3L685 431.6L630 415.4Z" fill="#00cc8e" stroke="#00cc8e"></path><path d="M762 281L716 259L677 305.9Z" fill="#00b894" stroke="#00b894"></path><path d="M184 285.9L284 296.1L209 233.3Z" fill="#00b894" stroke="#00b894"></path><path d="M462 551.4L519 549.4L457 512.3Z" fill="#093141" stroke="#093141"></path><path d="M519 549.4L578 529.1L550 493.3Z" fill="#00cc8e" stroke="#00cc8e"></path><path d="M166 271.1L184 285.9L209 233.3Z" fill="#00a495" stroke="#00a495"></path><path d="M312 525.6L334 530.1L318 499.1Z" fill="#08202e" stroke="#08202e"></path><path d="M318 499.1L334 530.1L344 493.3Z" fill="#00a495" stroke="#00a495"></path><path d="M252 436.3L254 469.6L292 460.4Z" fill="#035566" stroke="#035566"></path><path d="M211 425.9L252 436.3L233 404.9Z" fill="#00a495" stroke="#00a495"></path><path d="M759 183.1L682 127.9L675 156.6Z" fill="#093141" stroke="#093141"></path><path d="M675 156.6L682 127.9L623 153.6Z" fill="#009090" stroke="#009090"></path><path d="M265 67.9L266 85.4L311 80.6Z" fill="#00101c" stroke="#00101c"></path><path d="M311 80.6L266 85.4L332 112.6Z" fill="#00b894" stroke="#00b894"></path><path d="M430 0L398 13.7L448 47.9Z" fill="#009090" stroke="#009090"></path><path d="M373 47.9L341 26.9L349 82.6Z" fill="#00101c" stroke="#00101c"></path><path d="M439 0L448 47.9L457 39.6Z" fill="#00b894" stroke="#00b894"></path><path d="M466 0L457 39.6L482 0Z" fill="#08202e" stroke="#08202e"></path><path d="M685 431.6L708 408.7L674 355.1Z" fill="#00cc8e" stroke="#00cc8e"></path><path d="M266 85.4L243 104.9L273 171.3Z" fill="#08202e" stroke="#08202e"></path><path d="M257 490.1L312 525.6L318 499.1Z" fill="#035566" stroke="#035566"></path><path d="M163 170.7L187 203.6L208 193.4Z" fill="#035566" stroke="#035566"></path><path d="M208 193.4L187 203.6L209 233.3Z" fill="#08202e" stroke="#08202e"></path><path d="M166 271.1L176 317L184 285.9Z" fill="#035566" stroke="#035566"></path><path d="M184 285.9L176 317L191 338.1Z" fill="#009090" stroke="#009090"></path><path d="M164 408.4L178 420.3L198 359.9Z" fill="#009090" stroke="#009090"></path><path d="M198 359.9L211 425.9L233 404.9Z" fill="#074254" stroke="#074254"></path><path d="M352 0L341 26.9L373 47.9Z" fill="#035566" stroke="#035566"></path><path d="M178 420.3L211 425.9L198 359.9Z" fill="#074254" stroke="#074254"></path><path d="M482 0L457 39.6L500 41.9Z" fill="#093141" stroke="#093141"></path><path d="M466 0L439 0L457 39.6Z" fill="#035566" stroke="#035566"></path><path d="M398 13.7L352 0L373 47.9Z" fill="#08202e" stroke="#08202e"></path><path d="M574 0L482 0L500 41.9Z" fill="#00a495" stroke="#00a495"></path><path d="M211 456.3L257 490.1L254 469.6Z" fill="#08202e" stroke="#08202e"></path><path d="M254 469.6L257 490.1L292 460.4Z" fill="#093141" stroke="#093141"></path><path d="M439 0L430 0L448 47.9Z" fill="#00101c" stroke="#00101c"></path><path d="M211 425.9L223 451.7L252 436.3Z" fill="#08202e" stroke="#08202e"></path><path d="M266 85.4L265 67.9L243 104.9Z" fill="#074254" stroke="#074254"></path><path d="M276 37.6L265 67.9L311 80.6Z" fill="#08202e" stroke="#08202e"></path><path d="M187 203.6L166 271.1L209 233.3Z" fill="#00101c" stroke="#00101c"></path><path d="M578 529.1L609 534.3L596 516.1Z" fill="#035566" stroke="#035566"></path><path d="M596 516.1L663 515.3L578 491.1Z" fill="#035566" stroke="#035566"></path><path d="M685 431.6L724 426.6L708 408.7Z" fill="#093141" stroke="#093141"></path><path d="M554 600L609 534.3L578 529.1Z" fill="#08202e" stroke="#08202e"></path><path d="M716 259L754 262.3L713 232.1Z" fill="#00b894" stroke="#00b894"></path><path d="M713 232.1L759 183.1L675 156.6Z" fill="#007c86" stroke="#007c86"></path><path d="M762 281L677 305.9L769 305Z" fill="#00a495" stroke="#00a495"></path><path d="M186 450.4L211 456.3L211 425.9Z" fill="#009090" stroke="#009090"></path><path d="M211 425.9L211 456.3L223 451.7Z" fill="#074254" stroke="#074254"></path><path d="M223 451.7L211 456.3L254 469.6Z" fill="#009090" stroke="#009090"></path><path d="M745 461.3L724 426.6L685 431.6Z" fill="#035566" stroke="#035566"></path><path d="M769 305L677 305.9L682 351.6Z" fill="#08202e" stroke="#08202e"></path><path d="M430 0L411 -14.3L398 13.7Z" fill="#00cc8e" stroke="#00cc8e"></path><path d="M341 26.9L276 37.6L311 80.6Z" fill="#035566" stroke="#035566"></path><path d="M439 0L411 -14.3L430 0Z" fill="#08202e" stroke="#08202e"></path><path d="M466 0L411 -14.3L439 0Z" fill="#00b894" stroke="#00b894"></path><path d="M482 0L411 -14.3L466 0Z" fill="#093141" stroke="#093141"></path><path d="M411 -14.3L352 0L398 13.7Z" fill="#00cc8e" stroke="#00cc8e"></path><path d="M769 305L682 351.6L708 408.7Z" fill="#00101c" stroke="#00101c"></path><path d="M322 0L276 37.6L341 26.9Z" fill="#074254" stroke="#074254"></path><path d="M265 67.9L259 44.7L243 104.9Z" fill="#009090" stroke="#009090"></path><path d="M243 104.9L163 170.7L208 193.4Z" fill="#074254" stroke="#074254"></path><path d="M576 0L574 0L587 54.7Z" fill="#00101c" stroke="#00101c"></path><path d="M587 54.7L574 0L535 72.7Z" fill="#00b894" stroke="#00b894"></path><path d="M482 0L654 -56.1L411 -14.3Z" fill="#093141" stroke="#093141"></path><path d="M609 534.3L663 515.3L596 516.1Z" fill="#035566" stroke="#035566"></path><path d="M601 0L576 0L587 54.7Z" fill="#00cc8e" stroke="#00cc8e"></path><path d="M654 -56.1L269 -54.1L411 -14.3Z" fill="#009090" stroke="#009090"></path><path d="M269 -54.1L337 0L352 0Z" fill="#00b894" stroke="#00b894"></path><path d="M352 0L337 0L341 26.9Z" fill="#035566" stroke="#035566"></path><path d="M164 408.4L198 359.9L191 338.1Z" fill="#00a495" stroke="#00a495"></path><path d="M164 408.4L191 338.1L103 382.7Z" fill="#00b894" stroke="#00b894"></path><path d="M259 -19.1L259 44.7L276 37.6Z" fill="#00b894" stroke="#00b894"></path><path d="M276 37.6L259 44.7L265 67.9Z" fill="#074254" stroke="#074254"></path><path d="M788 315L769 305L802 341Z" fill="#074254" stroke="#074254"></path><path d="M803 269.3L771 266L762 281Z" fill="#00cc8e" stroke="#00cc8e"></path><path d="M762 281L771 266L754 262.3Z" fill="#035566" stroke="#035566"></path><path d="M754 262.3L759 183.1L713 232.1Z" fill="#00a495" stroke="#00a495"></path><path d="M259 -19.1L322 0L269 -54.1Z" fill="#00101c" stroke="#00101c"></path><path d="M337 0L322 0L341 26.9Z" fill="#093141" stroke="#093141"></path><path d="M127 135.3L163 170.7L142 95.4Z" fill="#00cc8e" stroke="#00cc8e"></path><path d="M187 203.6L133 227.6L166 271.1Z" fill="#00a495" stroke="#00a495"></path><path d="M395 600L446 545.1L397 510.4Z" fill="#074254" stroke="#074254"></path><path d="M462 551.4L518 600L519 549.4Z" fill="#00101c" stroke="#00101c"></path><path d="M519 549.4L554 600L578 529.1Z" fill="#00cc8e" stroke="#00cc8e"></path><path d="M395 600L397 510.4L378 600Z" fill="#074254" stroke="#074254"></path><path d="M397 510.4L334 530.1L378 600Z" fill="#00b894" stroke="#00b894"></path><path d="M178 420.3L186 450.4L211 425.9Z" fill="#009090" stroke="#009090"></path><path d="M211 456.3L197 469.6L257 490.1Z" fill="#006877" stroke="#006877"></path><path d="M257 490.1L277 559.4L312 525.6Z" fill="#00a495" stroke="#00a495"></path><path d="M803 269.3L774 262.4L771 266Z" fill="#00b894" stroke="#00b894"></path><path d="M771 266L774 262.4L754 262.3Z" fill="#007c86" stroke="#007c86"></path><path d="M103 382.7L191 338.1L176 317Z" fill="#009090" stroke="#009090"></path><path d="M178 420.3L127 453.7L186 450.4Z" fill="#035566" stroke="#035566"></path><path d="M114 294.9L176 317L166 271.1Z" fill="#00b894" stroke="#00b894"></path><path d="M782 254.1L759 183.1L754 262.3Z" fill="#007c86" stroke="#007c86"></path><path d="M621 0L601 0L587 54.7Z" fill="#035566" stroke="#035566"></path><path d="M186 450.4L197 469.6L211 456.3Z" fill="#00a495" stroke="#00a495"></path><path d="M640 600L663 515.3L609 534.3Z" fill="#08202e" stroke="#08202e"></path><path d="M667 600L678 515.1L663 515.3Z" fill="#074254" stroke="#074254"></path><path d="M663 515.3L678 515.1L685 431.6Z" fill="#00101c" stroke="#00101c"></path><path d="M688 13.7L588 61.7L682 127.9Z" fill="#006877" stroke="#006877"></path><path d="M654 -56.1L482 0L574 0Z" fill="#007c86" stroke="#007c86"></path><path d="M422 600L518 600L462 551.4Z" fill="#08202e" stroke="#08202e"></path><path d="M378 600L334 530.1L313 600Z" fill="#006877" stroke="#006877"></path><path d="M767 125.7L719 97.7L682 127.9Z" fill="#035566" stroke="#035566"></path><path d="M518 600L533 600L519 549.4Z" fill="#006877" stroke="#006877"></path><path d="M313 600L334 530.1L312 525.6Z" fill="#00a495" stroke="#00a495"></path><path d="M803 269.3L782 254.1L774 262.4Z" fill="#00a495" stroke="#00a495"></path><path d="M774 262.4L782 254.1L754 262.3Z" fill="#009090" stroke="#009090"></path><path d="M239 542.4L277 559.4L257 490.1Z" fill="#00b894" stroke="#00b894"></path><path d="M688 13.7L621 0L588 61.7Z" fill="#006877" stroke="#006877"></path><path d="M654 -56.1L574 0L576 0Z" fill="#00a495" stroke="#00a495"></path><path d="M129 207.4L133 227.6L187 203.6Z" fill="#00b894" stroke="#00b894"></path><path d="M533 600L554 600L519 549.4Z" fill="#00cc8e" stroke="#00cc8e"></path><path d="M277 647.1L401 610.3L378 600Z" fill="#093141" stroke="#093141"></path><path d="M378 600L401 610.3L395 600Z" fill="#00cc8e" stroke="#00cc8e"></path><path d="M395 600L401 610.3L422 600Z" fill="#009090" stroke="#009090"></path><path d="M422 600L401 610.3L518 600Z" fill="#009090" stroke="#009090"></path><path d="M518 600L546 606.1L533 600Z" fill="#074254" stroke="#074254"></path><path d="M533 600L546 606.1L554 600Z" fill="#009090" stroke="#009090"></path><path d="M802 341L769 305L708 408.7Z" fill="#00101c" stroke="#00101c"></path><path d="M769 305L803 269.3L762 281Z" fill="#093141" stroke="#093141"></path><path d="M802 341L708 408.7L804 410.6Z" fill="#074254" stroke="#074254"></path><path d="M401 610.3L546 606.1L518 600Z" fill="#074254" stroke="#074254"></path><path d="M554 600L640 600L609 534.3Z" fill="#08202e" stroke="#08202e"></path><path d="M197 469.6L215 518.3L257 490.1Z" fill="#08202e" stroke="#08202e"></path><path d="M192 500.6L215 518.3L197 469.6Z" fill="#00b894" stroke="#00b894"></path><path d="M190 497.3L197 469.6L186 450.4Z" fill="#00cc8e" stroke="#00cc8e"></path><path d="M746 97.9L731 89.6L719 97.7Z" fill="#08202e" stroke="#08202e"></path><path d="M719 97.7L718 50.6L682 127.9Z" fill="#00101c" stroke="#00101c"></path><path d="M746 97.9L719 97.7L767 125.7Z" fill="#074254" stroke="#074254"></path><path d="M134 188.6L129 207.4L187 203.6Z" fill="#009090" stroke="#009090"></path><path d="M111 262.3L114 294.9L166 271.1Z" fill="#007c86" stroke="#007c86"></path><path d="M134 188.6L187 203.6L163 170.7Z" fill="#00101c" stroke="#00101c"></path><path d="M127 135.3L134 188.6L163 170.7Z" fill="#093141" stroke="#093141"></path><path d="M215 518.3L239 542.4L257 490.1Z" fill="#093141" stroke="#093141"></path><path d="M678 515.1L745 461.3L685 431.6Z" fill="#00cc8e" stroke="#00cc8e"></path><path d="M127 453.7L190 497.3L186 450.4Z" fill="#074254" stroke="#074254"></path><path d="M232 601.1L259 600L239 542.4Z" fill="#007c86" stroke="#007c86"></path><path d="M190 497.3L192 500.6L197 469.6Z" fill="#006877" stroke="#006877"></path><path d="M111 262.3L166 271.1L133 227.6Z" fill="#00cc8e" stroke="#00cc8e"></path><path d="M164 408.4L127 453.7L178 420.3Z" fill="#08202e" stroke="#08202e"></path><path d="M767 125.7L682 127.9L759 183.1Z" fill="#007c86" stroke="#007c86"></path><path d="M731 89.6L718 50.6L719 97.7Z" fill="#00cc8e" stroke="#00cc8e"></path><path d="M277 559.4L313 600L312 525.6Z" fill="#009090" stroke="#009090"></path><path d="M259 600L313 600L277 559.4Z" fill="#006877" stroke="#006877"></path><path d="M788 315L803 269.3L769 305Z" fill="#00cc8e" stroke="#00cc8e"></path><path d="M782 254.1L806 237.4L759 183.1Z" fill="#00cc8e" stroke="#00cc8e"></path><path d="M823 301.9L803 269.3L788 315Z" fill="#00cc8e" stroke="#00cc8e"></path><path d="M104 243.3L133 227.6L129 207.4Z" fill="#006877" stroke="#006877"></path><path d="M104 243.3L111 262.3L133 227.6Z" fill="#009090" stroke="#009090"></path><path d="M781 116.7L767 125.7L807 147.4Z" fill="#035566" stroke="#035566"></path><path d="M816 353.7L802 341L804 410.6Z" fill="#035566" stroke="#035566"></path><path d="M743 73.6L718 50.6L731 89.6Z" fill="#08202e" stroke="#08202e"></path><path d="M745 78.4L731 89.6L746 97.9Z" fill="#035566" stroke="#035566"></path><path d="M861 242.3L806 237.4L803 269.3Z" fill="#08202e" stroke="#08202e"></path><path d="M803 269.3L806 237.4L782 254.1Z" fill="#00a495" stroke="#00a495"></path><path d="M781 116.7L745 78.4L746 97.9Z" fill="#074254" stroke="#074254"></path><path d="M97 191.1L104 243.3L129 207.4Z" fill="#074254" stroke="#074254"></path><path d="M111 262.3L55 270.4L114 294.9Z" fill="#007c86" stroke="#007c86"></path><path d="M736 525.4L767 459.6L745 461.3Z" fill="#00a495" stroke="#00a495"></path><path d="M745 461.3L767 459.6L724 426.6Z" fill="#093141" stroke="#093141"></path><path d="M736 525.4L745 461.3L678 515.1Z" fill="#00101c" stroke="#00101c"></path><path d="M758 48.6L743 73.6L745 78.4Z" fill="#006877" stroke="#006877"></path><path d="M745 78.4L743 73.6L731 89.6Z" fill="#00101c" stroke="#00101c"></path><path d="M719 0L688 13.7L718 50.6Z" fill="#00b894" stroke="#00b894"></path><path d="M718 50.6L688 13.7L682 127.9Z" fill="#035566" stroke="#035566"></path><path d="M142 95.4L163 170.7L243 104.9Z" fill="#00b894" stroke="#00b894"></path><path d="M134 188.6L97 191.1L129 207.4Z" fill="#093141" stroke="#093141"></path><path d="M142 95.4L243 104.9L191 -3.3Z" fill="#035566" stroke="#035566"></path><path d="M269 -54.1L322 0L337 0Z" fill="#074254" stroke="#074254"></path><path d="M322 0L259 -19.1L276 37.6Z" fill="#074254" stroke="#074254"></path><path d="M546 606.1L640 600L554 600Z" fill="#074254" stroke="#074254"></path><path d="M767 125.7L781 116.7L746 97.9Z" fill="#08202e" stroke="#08202e"></path><path d="M807 147.4L767 125.7L759 183.1Z" fill="#007c86" stroke="#007c86"></path><path d="M804 410.6L708 408.7L724 426.6Z" fill="#074254" stroke="#074254"></path><path d="M826 324.7L823 301.9L788 315Z" fill="#00a495" stroke="#00a495"></path><path d="M826 324.7L788 315L802 341Z" fill="#093141" stroke="#093141"></path><path d="M806 237.4L807 147.4L759 183.1Z" fill="#08202e" stroke="#08202e"></path><path d="M76 369L103 382.7L114 294.9Z" fill="#007c86" stroke="#007c86"></path><path d="M114 294.9L103 382.7L176 317Z" fill="#007c86" stroke="#007c86"></path><path d="M190 497.3L84 524.1L192 500.6Z" fill="#009090" stroke="#009090"></path><path d="M191 -3.3L243 104.9L259 44.7Z" fill="#009090" stroke="#009090"></path><path d="M717 600L736 525.4L678 515.1Z" fill="#074254" stroke="#074254"></path><path d="M813 407.7L804 410.6L812 507.4Z" fill="#009090" stroke="#009090"></path><path d="M767 459.6L804 410.6L724 426.6Z" fill="#007c86" stroke="#007c86"></path><path d="M114 426.9L127 453.7L164 408.4Z" fill="#00b894" stroke="#00b894"></path><path d="M232 601.1L239 542.4L218 600Z" fill="#074254" stroke="#074254"></path><path d="M892 289.7L826 324.7L900 300.1Z" fill="#009090" stroke="#009090"></path><path d="M816 353.7L826 324.7L802 341Z" fill="#074254" stroke="#074254"></path><path d="M103 382.7L114 426.9L164 408.4Z" fill="#093141" stroke="#093141"></path><path d="M239 542.4L214 600L218 600Z" fill="#074254" stroke="#074254"></path><path d="M239 542.4L259 600L277 559.4Z" fill="#093141" stroke="#093141"></path><path d="M313 600L277 647.1L378 600Z" fill="#08202e" stroke="#08202e"></path><path d="M127 135.3L97 191.1L134 188.6Z" fill="#007c86" stroke="#007c86"></path><path d="M42 300L76 369L114 294.9Z" fill="#074254" stroke="#074254"></path><path d="M100 129.6L97 191.1L127 135.3Z" fill="#00cc8e" stroke="#00cc8e"></path><path d="M814 122.9L807 147.4L900 160.6Z" fill="#00b894" stroke="#00b894"></path><path d="M807 147.4L806 237.4L869 222.3Z" fill="#093141" stroke="#093141"></path><path d="M812 507.4L804 410.6L767 459.6Z" fill="#035566" stroke="#035566"></path><path d="M804 410.6L813 407.7L816 353.7Z" fill="#00101c" stroke="#00101c"></path><path d="M640 600L667 600L663 515.3Z" fill="#00cc8e" stroke="#00cc8e"></path><path d="M717 600L667 600L768 652.1Z" fill="#00b894" stroke="#00b894"></path><path d="M817 57.7L745 78.4L781 116.7Z" fill="#00b894" stroke="#00b894"></path><path d="M817 57.7L758 48.6L745 78.4Z" fill="#007c86" stroke="#007c86"></path><path d="M743 73.6L758 48.6L718 50.6Z" fill="#093141" stroke="#093141"></path><path d="M758 48.6L719 0L718 50.6Z" fill="#00b894" stroke="#00b894"></path><path d="M688 13.7L654 -56.1L621 0Z" fill="#093141" stroke="#093141"></path><path d="M654 -56.1L576 0L601 0Z" fill="#007c86" stroke="#007c86"></path><path d="M411 -14.3L269 -54.1L352 0Z" fill="#035566" stroke="#035566"></path><path d="M259 -19.1L191 -3.3L259 44.7Z" fill="#00101c" stroke="#00101c"></path><path d="M654 -56.1L601 0L621 0Z" fill="#00a495" stroke="#00a495"></path><path d="M239 542.4L215 518.3L214 600Z" fill="#007c86" stroke="#007c86"></path><path d="M259 600L277 647.1L313 600Z" fill="#00101c" stroke="#00101c"></path><path d="M114 426.9L116 470.7L127 453.7Z" fill="#007c86" stroke="#007c86"></path><path d="M127 453.7L116 470.7L190 497.3Z" fill="#00a495" stroke="#00a495"></path><path d="M38 417.4L116 470.7L114 426.9Z" fill="#00cc8e" stroke="#00cc8e"></path><path d="M80 93.4L100 129.6L142 95.4Z" fill="#093141" stroke="#093141"></path><path d="M142 95.4L100 129.6L127 135.3Z" fill="#035566" stroke="#035566"></path><path d="M55 270.4L111 262.3L104 243.3Z" fill="#006877" stroke="#006877"></path><path d="M103 382.7L38 417.4L114 426.9Z" fill="#00b894" stroke="#00b894"></path><path d="M55 270.4L104 243.3L97 191.1Z" fill="#00cc8e" stroke="#00cc8e"></path><path d="M807 147.4L814 122.9L781 116.7Z" fill="#007c86" stroke="#007c86"></path><path d="M861 242.3L803 269.3L823 301.9Z" fill="#00a495" stroke="#00a495"></path><path d="M219 -55.1L191 -3.3L259 -19.1Z" fill="#093141" stroke="#093141"></path><path d="M715 -15.1L654 -56.1L688 13.7Z" fill="#00a495" stroke="#00a495"></path><path d="M214 600L215 518.3L165 600Z" fill="#00cc8e" stroke="#00cc8e"></path><path d="M784 0L715 -15.1L719 0Z" fill="#00cc8e" stroke="#00cc8e"></path><path d="M719 0L715 -15.1L688 13.7Z" fill="#007c86" stroke="#007c86"></path><path d="M784 0L719 0L758 48.6Z" fill="#074254" stroke="#074254"></path><path d="M165 600L215 518.3L192 500.6Z" fill="#006877" stroke="#006877"></path><path d="M218 600L277 647.1L232 601.1Z" fill="#00101c" stroke="#00101c"></path><path d="M0 214.4L55 270.4L97 191.1Z" fill="#093141" stroke="#093141"></path><path d="M214 600L277 647.1L218 600Z" fill="#08202e" stroke="#08202e"></path><path d="M232 601.1L277 647.1L259 600Z" fill="#074254" stroke="#074254"></path><path d="M401 610.3L277 647.1L546 606.1Z" fill="#00a495" stroke="#00a495"></path><path d="M736 600L717 600L768 652.1Z" fill="#093141" stroke="#093141"></path><path d="M892 289.7L823 301.9L826 324.7Z" fill="#093141" stroke="#093141"></path><path d="M892 289.7L861 242.3L823 301.9Z" fill="#006877" stroke="#006877"></path><path d="M80 93.4L69 159.7L100 129.6Z" fill="#08202e" stroke="#08202e"></path><path d="M100 129.6L69 159.7L97 191.1Z" fill="#007c86" stroke="#007c86"></path><path d="M667 600L640 600L768 652.1Z" fill="#08202e" stroke="#08202e"></path><path d="M667 600L717 600L678 515.1Z" fill="#074254" stroke="#074254"></path><path d="M736 525.4L792 528.3L767 459.6Z" fill="#007c86" stroke="#007c86"></path><path d="M42 300L55 372.6L76 369Z" fill="#00101c" stroke="#00101c"></path><path d="M76 369L38 417.4L103 382.7Z" fill="#00b894" stroke="#00b894"></path><path d="M771 600L792 528.3L736 525.4Z" fill="#074254" stroke="#074254"></path><path d="M900 231.4L869 222.3L861 242.3Z" fill="#00cc8e" stroke="#00cc8e"></path><path d="M269 -54.1L219 -55.1L259 -19.1Z" fill="#007c86" stroke="#007c86"></path><path d="M114 9.7L80 93.4L142 95.4Z" fill="#00a495" stroke="#00a495"></path><path d="M654 -56.1L219 -55.1L269 -54.1Z" fill="#009090" stroke="#009090"></path><path d="M55 270.4L42 300L114 294.9Z" fill="#00b894" stroke="#00b894"></path><path d="M0 260.3L42 300L55 270.4Z" fill="#00b894" stroke="#00b894"></path><path d="M826 324.7L816 353.7L900 371.7Z" fill="#009090" stroke="#009090"></path><path d="M861 242.3L869 222.3L806 237.4Z" fill="#08202e" stroke="#08202e"></path><path d="M792 528.3L812 507.4L767 459.6Z" fill="#00a495" stroke="#00a495"></path><path d="M771 600L736 600L768 652.1Z" fill="#093141" stroke="#093141"></path><path d="M717 600L736 600L736 525.4Z" fill="#00b894" stroke="#00b894"></path><path d="M792 528.3L805 568.1L812 507.4Z" fill="#006877" stroke="#006877"></path><path d="M141 0L142 95.4L191 -3.3Z" fill="#009090" stroke="#009090"></path><path d="M0 214.4L0 260.3L55 270.4Z" fill="#00101c" stroke="#00101c"></path><path d="M219 -55.1L141 0L191 -3.3Z" fill="#00b894" stroke="#00b894"></path><path d="M900 96.9L817 57.7L814 122.9Z" fill="#08202e" stroke="#08202e"></path><path d="M814 122.9L817 57.7L781 116.7Z" fill="#00cc8e" stroke="#00cc8e"></path><path d="M84 524.1L165 600L192 500.6Z" fill="#00cc8e" stroke="#00cc8e"></path><path d="M214 600L165 600L277 647.1Z" fill="#08202e" stroke="#08202e"></path><path d="M84 524.1L190 497.3L116 470.7Z" fill="#08202e" stroke="#08202e"></path><path d="M715 -15.1L834 -51.1L654 -56.1Z" fill="#00101c" stroke="#00101c"></path><path d="M817 57.7L784 0L758 48.6Z" fill="#08202e" stroke="#08202e"></path><path d="M875 415.3L816 353.7L813 407.7Z" fill="#00101c" stroke="#00101c"></path><path d="M869 222.3L900 164.3L807 147.4Z" fill="#08202e" stroke="#08202e"></path><path d="M870 480.6L875 415.3L813 407.7Z" fill="#00101c" stroke="#00101c"></path><path d="M3 387.4L38 417.4L55 372.6Z" fill="#00b894" stroke="#00b894"></path><path d="M55 372.6L38 417.4L76 369Z" fill="#009090" stroke="#009090"></path><path d="M52 0L114 9.7L141 0Z" fill="#00b894" stroke="#00b894"></path><path d="M141 0L114 9.7L142 95.4Z" fill="#00b894" stroke="#00b894"></path><path d="M53 516.6L84 524.1L116 470.7Z" fill="#074254" stroke="#074254"></path><path d="M900 371.7L900 300.1L826 324.7Z" fill="#006877" stroke="#006877"></path><path d="M892 289.7L900 231.4L861 242.3Z" fill="#08202e" stroke="#08202e"></path><path d="M796 625.1L771 600L768 652.1Z" fill="#00cc8e" stroke="#00cc8e"></path><path d="M736 600L771 600L736 525.4Z" fill="#00cc8e" stroke="#00cc8e"></path><path d="M889 437.9L885 422.9L875 415.3Z" fill="#00a495" stroke="#00a495"></path><path d="M900 300.1L900 231.4L892 289.7Z" fill="#035566" stroke="#035566"></path><path d="M900 231.4L900 220L869 222.3Z" fill="#006877" stroke="#006877"></path><path d="M771 600L805 568.1L792 528.3Z" fill="#00a495" stroke="#00a495"></path><path d="M817 57.7L804 0L784 0Z" fill="#074254" stroke="#074254"></path><path d="M784 0L834 -51.1L715 -15.1Z" fill="#00cc8e" stroke="#00cc8e"></path><path d="M839 0L804 0L817 57.7Z" fill="#08202e" stroke="#08202e"></path><path d="M870 480.6L813 407.7L812 507.4Z" fill="#035566" stroke="#035566"></path><path d="M875 415.3L900 371.7L816 353.7Z" fill="#006877" stroke="#006877"></path><path d="M900 401.6L900 371.7L875 415.3Z" fill="#00a495" stroke="#00a495"></path><path d="M900 231.4L901 200.1L900 220Z" fill="#009090" stroke="#009090"></path><path d="M900 220L901 200.1L869 222.3Z" fill="#00a495" stroke="#00a495"></path><path d="M900 300.1L901 200.1L900 231.4Z" fill="#00cc8e" stroke="#00cc8e"></path><path d="M912 44.6L901 200.1L900 300.1Z" fill="#074254" stroke="#074254"></path><path d="M900 517.1L870 480.6L812 507.4Z" fill="#00cc8e" stroke="#00cc8e"></path><path d="M885 422.9L900 401.6L875 415.3Z" fill="#08202e" stroke="#08202e"></path><path d="M27 116.9L69 159.7L80 93.4Z" fill="#009090" stroke="#009090"></path><path d="M0 214.4L97 191.1L0 207.1Z" fill="#093141" stroke="#093141"></path><path d="M42 300L0 316L55 372.6Z" fill="#035566" stroke="#035566"></path><path d="M900 416.9L900 401.6L885 422.9Z" fill="#00a495" stroke="#00a495"></path><path d="M900 371.7L912 44.6L900 300.1Z" fill="#006877" stroke="#006877"></path><path d="M0 260.3L0 316L42 300Z" fill="#009090" stroke="#009090"></path><path d="M870 480.6L889 437.9L875 415.3Z" fill="#035566" stroke="#035566"></path><path d="M901 200.1L900 164.3L869 222.3Z" fill="#006877" stroke="#006877"></path><path d="M912 44.6L900 160.6L900 164.3Z" fill="#009090" stroke="#009090"></path><path d="M900 164.3L900 160.6L807 147.4Z" fill="#00cc8e" stroke="#00cc8e"></path><path d="M26 75.7L27 116.9L80 93.4Z" fill="#035566" stroke="#035566"></path><path d="M900 437.3L885 422.9L889 437.9Z" fill="#074254" stroke="#074254"></path><path d="M900 437.3L900 416.9L885 422.9Z" fill="#00101c" stroke="#00101c"></path><path d="M900 401.6L912 44.6L900 371.7Z" fill="#007c86" stroke="#007c86"></path><path d="M0 207.1L97 191.1L69 159.7Z" fill="#035566" stroke="#035566"></path><path d="M870 480.6L892 442.4L889 437.9Z" fill="#007c86" stroke="#007c86"></path><path d="M771 600L797 600L805 568.1Z" fill="#009090" stroke="#009090"></path><path d="M805 568.1L818 579.3L812 507.4Z" fill="#00b894" stroke="#00b894"></path><path d="M796 625.1L797 600L771 600Z" fill="#074254" stroke="#074254"></path><path d="M-8 188.3L0 207.1L69 159.7Z" fill="#035566" stroke="#035566"></path><path d="M0 316L0 367.6L55 372.6Z" fill="#006877" stroke="#006877"></path><path d="M26 486.6L53 516.6L116 470.7Z" fill="#00cc8e" stroke="#00cc8e"></path><path d="M0 367.6L3 387.4L55 372.6Z" fill="#007c86" stroke="#007c86"></path><path d="M797 600L818 579.3L805 568.1Z" fill="#093141" stroke="#093141"></path><path d="M900 517.1L900 437.3L892 442.4Z" fill="#007c86" stroke="#007c86"></path><path d="M26 486.6L116 470.7L38 417.4Z" fill="#00a495" stroke="#00a495"></path><path d="M84 524.1L54 572.1L165 600Z" fill="#006877" stroke="#006877"></path><path d="M0 367.6L0 380.9L3 387.4Z" fill="#00cc8e" stroke="#00cc8e"></path><path d="M3 387.4L-6 393L38 417.4Z" fill="#093141" stroke="#093141"></path><path d="M900 517.1L892 442.4L870 480.6Z" fill="#00a495" stroke="#00a495"></path><path d="M892 442.4L900 437.3L889 437.9Z" fill="#00101c" stroke="#00101c"></path><path d="M900 416.9L912 44.6L900 401.6Z" fill="#035566" stroke="#035566"></path><path d="M912 44.6L900 130.7L900 160.6Z" fill="#00101c" stroke="#00101c"></path><path d="M900 160.6L900 130.7L814 122.9Z" fill="#007c86" stroke="#007c86"></path><path d="M0 125.6L-8 188.3L69 159.7Z" fill="#00101c" stroke="#00101c"></path><path d="M0 207.1L-46 216.1L0 214.4Z" fill="#035566" stroke="#035566"></path><path d="M0 214.4L-46 216.1L0 260.3Z" fill="#009090" stroke="#009090"></path><path d="M0 260.3L-46 216.1L0 316Z" fill="#009090" stroke="#009090"></path><path d="M0 316L-6 393L0 367.6Z" fill="#035566" stroke="#035566"></path><path d="M0 367.6L-6 393L0 380.9Z" fill="#093141" stroke="#093141"></path><path d="M-41 454.3L-6 393L0 316Z" fill="#00a495" stroke="#00a495"></path><path d="M0 380.9L-6 393L3 387.4Z" fill="#00101c" stroke="#00101c"></path><path d="M0 450.4L26 486.6L38 417.4Z" fill="#00a495" stroke="#00a495"></path><path d="M912 44.6L839 0L817 57.7Z" fill="#00a495" stroke="#00a495"></path><path d="M804 0L834 -51.1L784 0Z" fill="#00cc8e" stroke="#00cc8e"></path><path d="M52 0L26 75.7L80 93.4Z" fill="#08202e" stroke="#08202e"></path><path d="M27 116.9L0 125.6L69 159.7Z" fill="#00b894" stroke="#00b894"></path><path d="M797 600L843 641.1L818 579.3Z" fill="#093141" stroke="#093141"></path><path d="M900 537.4L900 517.1L812 507.4Z" fill="#009090" stroke="#009090"></path><path d="M768 652.1L640 600L546 606.1Z" fill="#074254" stroke="#074254"></path><path d="M277 647.1L768 652.1L546 606.1Z" fill="#009090" stroke="#009090"></path><path d="M912 44.6L900 96.9L900 130.7Z" fill="#00b894" stroke="#00b894"></path><path d="M900 130.7L900 96.9L814 122.9Z" fill="#074254" stroke="#074254"></path><path d="M0 102.7L0 125.6L27 116.9Z" fill="#006877" stroke="#006877"></path><path d="M-6 393L0 450.4L38 417.4Z" fill="#074254" stroke="#074254"></path><path d="M-41 454.3L0 456.3L0 450.4Z" fill="#00b894" stroke="#00b894"></path><path d="M0 450.4L0 456.3L26 486.6Z" fill="#08202e" stroke="#08202e"></path><path d="M26 75.7L0 102.7L27 116.9Z" fill="#00a495" stroke="#00a495"></path><path d="M0 125.6L-46 216.1L-8 188.3Z" fill="#007c86" stroke="#007c86"></path><path d="M-41 454.3L0 467.7L0 456.3Z" fill="#093141" stroke="#093141"></path><path d="M0 456.3L0 467.7L26 486.6Z" fill="#00cc8e" stroke="#00cc8e"></path><path d="M9 600L54 572.1L0 589.3Z" fill="#006877" stroke="#006877"></path><path d="M54 572.1L53 516.6L0 589.3Z" fill="#00101c" stroke="#00101c"></path><path d="M53 516.6L54 572.1L84 524.1Z" fill="#074254" stroke="#074254"></path><path d="M165 600L0 631.1L277 647.1Z" fill="#00b894" stroke="#00b894"></path><path d="M114 9.7L52 0L80 93.4Z" fill="#00cc8e" stroke="#00cc8e"></path><path d="M26 75.7L-8 30.9L0 102.7Z" fill="#00cc8e" stroke="#00cc8e"></path><path d="M219 -55.1L52 0L141 0Z" fill="#093141" stroke="#093141"></path><path d="M900 537.4L812 507.4L818 579.3Z" fill="#00101c" stroke="#00101c"></path><path d="M900 437.3L912 44.6L900 416.9Z" fill="#093141" stroke="#093141"></path><path d="M900 0L834 -51.1L839 0Z" fill="#08202e" stroke="#08202e"></path><path d="M839 0L834 -51.1L804 0Z" fill="#00101c" stroke="#00101c"></path><path d="M0 102.7L-46 216.1L0 125.6Z" fill="#035566" stroke="#035566"></path><path d="M-8 188.3L-46 216.1L0 207.1Z" fill="#00a495" stroke="#00a495"></path><path d="M-6 393L-41 454.3L0 450.4Z" fill="#093141" stroke="#093141"></path><path d="M52 0L35 0L26 75.7Z" fill="#093141" stroke="#093141"></path><path d="M0 102.7L-8 30.9L-46 216.1Z" fill="#00cc8e" stroke="#00cc8e"></path><path d="M219 -55.1L35 0L52 0Z" fill="#00cc8e" stroke="#00cc8e"></path><path d="M900 600L900 537.4L818 579.3Z" fill="#00101c" stroke="#00101c"></path><path d="M900 517.1L912 44.6L900 437.3Z" fill="#00b894" stroke="#00b894"></path><path d="M843 641.1L797 600L796 625.1Z" fill="#074254" stroke="#074254"></path><path d="M9 600L50 600L54 572.1Z" fill="#00101c" stroke="#00101c"></path><path d="M54 572.1L50 600L165 600Z" fill="#006877" stroke="#006877"></path><path d="M901 200.1L912 44.6L900 164.3Z" fill="#006877" stroke="#006877"></path><path d="M900 96.9L912 44.6L817 57.7Z" fill="#074254" stroke="#074254"></path><path d="M900 537.4L912 44.6L900 517.1Z" fill="#009090" stroke="#009090"></path><path d="M768 652.1L843 641.1L796 625.1Z" fill="#08202e" stroke="#08202e"></path><path d="M-46 216.1L-41 454.3L0 316Z" fill="#074254" stroke="#074254"></path><path d="M0 589.3L53 516.6L26 486.6Z" fill="#00b894" stroke="#00b894"></path><path d="M912 44.6L900 0L839 0Z" fill="#009090" stroke="#009090"></path><path d="M35 0L-8 30.9L26 75.7Z" fill="#00101c" stroke="#00101c"></path><path d="M219 -55.1L10 0L35 0Z" fill="#006877" stroke="#006877"></path><path d="M35 0L10 0L-8 30.9Z" fill="#074254" stroke="#074254"></path><path d="M10 0L0 5.9L-8 30.9Z" fill="#007c86" stroke="#007c86"></path><path d="M219 -55.1L0 0L10 0Z" fill="#00a495" stroke="#00a495"></path><path d="M10 0L0 0L0 5.9Z" fill="#00b894" stroke="#00b894"></path><path d="M0 5.9L0 0L-8 30.9Z" fill="#007c86" stroke="#007c86"></path><path d="M843 641.1L900 600L818 579.3Z" fill="#00101c" stroke="#00101c"></path><path d="M900 537.4L900 600L912 44.6Z" fill="#00101c" stroke="#00101c"></path><path d="M0 589.3L26 486.6L0 467.7Z" fill="#093141" stroke="#093141"></path><path d="M50 600L0 631.1L165 600Z" fill="#00a495" stroke="#00a495"></path><path d="M-41 454.3L0 589.3L0 467.7Z" fill="#007c86" stroke="#007c86"></path><path d="M-41 454.3L0 600L0 589.3Z" fill="#00101c" stroke="#00101c"></path><path d="M0 589.3L0 600L9 600Z" fill="#006877" stroke="#006877"></path><path d="M9 600L0 631.1L50 600Z" fill="#00b894" stroke="#00b894"></path><path d="M-41 454.3L0 631.1L0 600Z" fill="#009090" stroke="#009090"></path><path d="M0 600L0 631.1L9 600Z" fill="#00b894" stroke="#00b894"></path></g></svg>