<svg id="visual" viewBox="0 0 900 600" width="900" height="600" xmlns="http://www.w3.org/2000/svg" xmlns:xlink="http://www.w3.org/1999/xlink" version="1.1"><path d="M557 600L522.5 583.3C488 566.7 419 533.3 435.5 500C452 466.7 554 433.3 606.5 400C659 366.7 662 333.3 648.5 300C635 266.7 605 233.3 579.5 200C554 166.7 533 133.3 528.5 100C524 66.7 536 33.3 542 16.7L548 0L900 0L900 16.7C900 33.3 900 66.7 900 100C900 133.3 900 166.7 900 200C900 233.3 900 266.7 900 300C900 333.3 900 366.7 900 400C900 433.3 900 466.7 900 500C900 533.3 900 566.7 900 583.3L900 600Z" fill="#6198ff"></path><path d="M278 600L249.5 583.3C221 566.7 164 533.3 171.5 500C179 466.7 251 433.3 261.5 400C272 366.7 221 333.3 216.5 300C212 266.7 254 233.3 279.5 200C305 166.7 314 133.3 294.5 100C275 66.7 227 33.3 203 16.7L179 0L549 0L543 16.7C537 33.3 525 66.7 529.5 100C534 133.3 555 166.7 580.5 200C606 233.3 636 266.7 649.5 300C663 333.3 660 366.7 607.5 400C555 433.3 453 466.7 436.5 500C420 533.3 489 566.7 523.5 583.3L558 600Z" fill="#0066ff"></path><path d="M0 600L0 583.3C0 566.7 0 533.3 0 500C0 466.7 0 433.3 0 400C0 366.7 0 333.3 0 300C0 266.7 0 233.3 0 200C0 166.7 0 133.3 0 100C0 66.7 0 33.3 0 16.7L0 0L180 0L204 16.7C228 33.3 276 66.7 295.5 100C315 133.3 306 166.7 280.5 200C255 233.3 213 266.7 217.5 300C222 333.3 273 366.7 262.5 400C252 433.3 180 466.7 172.5 500C165 533.3 222 566.7 250.5 583.3L279 600Z" fill="#004cbb"></path></svg>