<svg id="visual" viewBox="0 0 900 600" width="900" height="600" xmlns="http://www.w3.org/2000/svg" xmlns:xlink="http://www.w3.org/1999/xlink" version="1.1"><path d="M791 600L776 575C761 550 731 500 704 450C677 400 653 350 639.5 300C626 250 623 200 627.5 150C632 100 644 50 650 25L656 0L900 0L900 25C900 50 900 100 900 150C900 200 900 250 900 300C900 350 900 400 900 450C900 500 900 550 900 575L900 600Z" fill="#6198ff"></path><path d="M206 600L240.5 575C275 550 344 500 342.5 450C341 400 269 350 239 300C209 250 221 200 219.5 150C218 100 203 50 195.5 25L188 0L657 0L651 25C645 50 633 100 628.5 150C624 200 627 250 640.5 300C654 350 678 400 705 450C732 500 762 550 777 575L792 600Z" fill="#0066ff"></path><path d="M0 600L0 575C0 550 0 500 0 450C0 400 0 350 0 300C0 250 0 200 0 150C0 100 0 50 0 25L0 0L189 0L196.5 25C204 50 219 100 220.5 150C222 200 210 250 240 300C270 350 342 400 343.5 450C345 500 276 550 241.5 575L207 600Z" fill="#004cbb"></path></svg>